<svg xmlns="http://www.w3.org/2000/svg" xmlns:xlink="http://www.w3.org/1999/xlink" viewBox="0 0 500 500"><defs><clipPath id="freepik--clip-path--inject-65"><path d="M371.2,176.45c0-2.4,1.59-4.8,4.76-6.63,6.34-3.66,16.63-3.66,23,0,3.17,1.83,4.76,4.23,4.76,6.63h0v4h0c0,2.4-1.59,4.8-4.76,6.63-6.34,3.67-16.63,3.67-23,0-3.17-1.83-4.76-4.23-4.76-6.63h0v-4Z" style="fill:none"></path></clipPath></defs><g id="freepik--Plants--inject-65"><g id="freepik--Leaves--inject-65" style="opacity:0.2"><path d="M458.45,350.57c.48,8.75,1.32,17.32-.09,26.06A67.37,67.37,0,0,1,451,398.16a97.72,97.72,0,0,1-12.57,18.08A146.75,146.75,0,0,1,417.28,436c-7.55,5.65-14.87,9.13-23.43,12.92a137.94,137.94,0,0,1-24.12,8.24c-17.15,4-34.29,4-51.84,3.17-7.5-.37-14.81-1.78-22.19-3.12a98.5,98.5,0,0,1-12.59-3.66c-1.79-.59-3.55-1.44-5.21-2.14s-3.06-1.44-4.68-2.08c-.28-.11-.55-.19-.78-.27l-.54-.17c-.17-.05.11,0,.08,0s-.07,0-.11,0c-1.8,0-2.79.68-2,2.49,0,.05.22.16.13.06s-.35-.33-.46-.45a9.46,9.46,0,0,0,2.91,2.19c1.53.73,2.92,1.5,4.43,2.06,4.16,1.54,8.24,3.44,12.54,4.37,7.51,1.63,15.11,3.57,22.75,3.85,17.37.62,34.9,2.29,51.8-2,17.77-4.47,33.71-11.19,49.73-20,8.74-4.78,15.33-12.34,22.54-19.37,5.42-5.28,10.09-12.17,14-18.68a65.77,65.77,0,0,0,8.55-20.53c1.79-8.39,1.29-16.89,1-25.38-.09-2.39-.8-4.58-1.09-6.9,0-.21-.28-.33-.27-.07S458.41,350.63,458.45,350.57Z" style="fill:#BA68C8"></path><path d="M454.88,337.91a26.48,26.48,0,0,1-1.05,9.56c-.95,3.24-2.77,6.12-3.21,9.58a39.3,39.3,0,0,0,2,17.83c1.12,3.4,3.1,6.61,4.74,9.83a.86.86,0,0,0,1,.49c.4-.13.37-.51.21-.84-2.84-5.7-5.48-11.38-6.69-17.64a26.14,26.14,0,0,1,0-9c.52-3.47,2-6.56,2.78-9.92a22.75,22.75,0,0,0,.46-9.88c0-.2-.2-.15-.19,0S454.89,338,454.88,337.91Z" style="fill:#BA68C8"></path><path d="M454.48,336.93a16.78,16.78,0,0,0,1.08,2.6c.43.87,1,1.71,1.45,2.57,1,1.74,2.15,3.35,3,5.18a48.39,48.39,0,0,1,3.68,9.68,31.68,31.68,0,0,1,.8,10.32,39,39,0,0,1-2.84,10.14c-.7,1.84-1.71,3.66-2.59,5.44-.44.9-1,1.79-1.44,2.67a10.56,10.56,0,0,0-.69,1.39c-.17.45-.32,1-.47,1.37s.22,1.23.63.88a10.38,10.38,0,0,0,1.75-2.37,26.22,26.22,0,0,0,1.41-2.45,52.12,52.12,0,0,0,2.46-5c1.32-3.38,2.72-6.64,3.22-10.27a30.78,30.78,0,0,0-.45-10.78,42.18,42.18,0,0,0-4-10.1c-1-2-2.36-3.65-3.5-5.51-.59-1-1.23-1.91-1.78-2.9s-1.05-2-1.63-3c-.06-.09-.1.05-.09.1S454.47,336.88,454.48,336.93Z" style="fill:#BA68C8"></path><path d="M443,376.44a43.3,43.3,0,0,1-3.58,7.26,27.1,27.1,0,0,0-3.31,7.7,30.74,30.74,0,0,0-.23,8.79,37,37,0,0,0,.8,4.45c.31,1.57.87,3.3,1.07,5a24.52,24.52,0,0,1,0,5.28,18.56,18.56,0,0,1-.51,2.68,20.54,20.54,0,0,0-.71,2.88c0,.29.39.85.65.47a12,12,0,0,0,1.71-4.67,20.16,20.16,0,0,0,.3-4.74c-.23-3.27-1.26-6.51-1.76-9.6a32.25,32.25,0,0,1-.4-8.95c.34-3,1.51-5.3,2.65-7.93.63-1.45,1.52-2.72,2.13-4.14a23,23,0,0,0,1.32-4.33c0-.1-.08-.32-.13-.16S443,376.48,443,376.44Z" style="fill:#BA68C8"></path><path d="M442.91,377.64a8.17,8.17,0,0,0-.42,5.14c.47,2.56,1.17,4.9,1.62,7.45a50.09,50.09,0,0,1,.92,13.66,29.72,29.72,0,0,1-2.33,7.62c-.13.34.38.95.58.58a24.38,24.38,0,0,0,3.22-12.29c-.07-5-1.37-9.41-2.48-14.11-.33-1.42-.85-2.72-1.16-4.1a6.8,6.8,0,0,1,.14-3.77c0-.07,0-.27-.09-.18S442.92,377.62,442.91,377.64Z" style="fill:#BA68C8"></path><path d="M440.93,389.89c-.27,3.7.32,7.21.7,10.88a35.36,35.36,0,0,1-.36,10.91,22.83,22.83,0,0,1-2.56,5.68c-.18.34.33.9.57.56a18.5,18.5,0,0,0,3.52-9.27c.34-4.12-.41-7.88-1-11.85a34.9,34.9,0,0,1-.71-6.8c0-.09-.11-.23-.12-.11S440.9,389.92,440.93,389.89Z" style="fill:#BA68C8"></path><path d="M475.32,388.41a46.13,46.13,0,0,0-5.2,7.36c-.82,1.38-1.52,2.8-2.35,4.19a35.85,35.85,0,0,1-2.5,4.14c-2.13,2.68-4.21,5.12-7.38,6.67s-6.72,2.11-10.21,2.72c-1.45.25-2.86.14-4.34.47a9.18,9.18,0,0,0-2.41.85,4.66,4.66,0,0,0-2.38,2.27c-.16.46.35.83.76.71a17.85,17.85,0,0,0,2.81-1.47,7.08,7.08,0,0,1,1.88-.59c1.17-.23,2.37-.16,3.54-.36,3.53-.61,7.19-1.15,10.42-2.7a21.28,21.28,0,0,0,7.77-6.52c1.92-2.47,3-5.32,4.35-8.1a54.35,54.35,0,0,1,5.38-9.3c.09-.12,0-.49-.14-.34S475.26,388.41,475.32,388.41Z" style="fill:#BA68C8"></path><path d="M474.77,389A31.86,31.86,0,0,0,472,391.1c-.92.73-1.73,1.58-2.7,2.28a27,27,0,0,1-6.19,3.41,60,60,0,0,0-12.75,6.11,16.4,16.4,0,0,0-2.76,2.64,10.74,10.74,0,0,0-1.14,1.56,8.94,8.94,0,0,0-.88,1.71c-.2.56.48,1,.83.62a42,42,0,0,1,5-5.31,27.83,27.83,0,0,1,5.82-3.44c4.3-2,8.54-3.46,12.42-6.19a24.41,24.41,0,0,0,2.56-2.44c.87-.82,1.75-1.82,2.64-2.66.1-.09.07-.48-.1-.37Z" style="fill:#BA68C8"></path><path d="M461.91,402.13a37.72,37.72,0,0,1-8.88,5.29,75.93,75.93,0,0,0-9.31,4.48,14.37,14.37,0,0,0-2.08,1.63,7.47,7.47,0,0,0-.81.93,4.08,4.08,0,0,0-.46.68,2.18,2.18,0,0,0-.23.79c0,.29.08.74.49.51a5.71,5.71,0,0,0,1.1-.91c.39-.35.61-.65,1.09-1.06a19.26,19.26,0,0,1,1.74-1.4,37.76,37.76,0,0,1,4.11-2.4c3-1.5,6.11-2.82,9-4.56a23.74,23.74,0,0,0,4.29-3.72c.08-.08.06-.36-.06-.26S461.87,402.14,461.91,402.13Z" style="fill:#BA68C8"></path><path d="M412.23,441a14,14,0,0,0,7.63,5.16,19.42,19.42,0,0,0,10-.18c7.19-2.1,13.6-5.68,20.77-7.8a18.9,18.9,0,0,1,5.5-.66,29.8,29.8,0,0,1,5.89,1c.43.09.3-.49,0-.55-6.6-1.41-12.49-.57-18.77,1.64-4,1.42-7.55,3.36-11.55,4.64a26.44,26.44,0,0,1-10,1.26,12.41,12.41,0,0,1-4.75-1.51,16.22,16.22,0,0,1-3.93-3.26c-.35-.36-1.2-.26-.75.29C412.26,441.06,412.06,441,412.23,441Z" style="fill:#BA68C8"></path><path d="M422.35,433.58c1.32-.41,2.7-.83,4-1.18s2.6-.82,3.92-1.09A38.51,38.51,0,0,1,438,430a37.56,37.56,0,0,1,15,2.64c3.32,1.37,5.95,3.81,8.91,5.75.25.16.24-.22.11-.34a34.89,34.89,0,0,0-7.57-5.61,26.34,26.34,0,0,0-7.74-2.76,45.72,45.72,0,0,0-15.65.51,29.2,29.2,0,0,0-4.36,1.35c-1.46.52-3,1.33-4.41,2,0,0,0,.08,0,.07Z" style="fill:#BA68C8"></path><path d="M415.31,440.1a9,9,0,0,1,2.71-1.44c1.09-.38,2.24-.84,3.42-1.22a63.23,63.23,0,0,1,7.05-2,81.11,81.11,0,0,1,14-1.48c1.38,0,2.71.19,4.1.24s2.81.27,4.2.46c0,0,0-.11,0-.12-2.37-.41-4.59-.92-7-1.12a50.28,50.28,0,0,0-7.48-.26A68.14,68.14,0,0,0,421.71,436a32.15,32.15,0,0,0-3.85,1.53,8,8,0,0,0-3,2c-.22.25.17.76.47.52Z" style="fill:#BA68C8"></path><path d="M395.8,432.19a51.26,51.26,0,0,0-9.93,10.24c-1.56,2.06-2.92,4.18-4.65,6.17a38.27,38.27,0,0,1-5.89,5.38,35.15,35.15,0,0,1-3.86,2.43c-1.37.76-3.07,1.48-4.46,2.25a.76.76,0,0,0-.21,1.1c.2.32.46.32.72.44a1,1,0,0,0,.76-.05c.2-.08-.31.07-.15,0a3.13,3.13,0,0,0,.48-.11c.22-.08.34-.1.69-.23s.69-.22,1.2-.46,1.39-.61,2-1a37.88,37.88,0,0,0,3.55-2.13,39.4,39.4,0,0,0,6.24-5.46,52.71,52.71,0,0,0,4.5-6.26c1.41-2.13,2.52-4.2,4-6.23a37.76,37.76,0,0,1,5.15-5.57c.19-.16.07-.76-.18-.58S395.69,432.17,395.8,432.19Z" style="fill:#BA68C8"></path><path d="M407.84,417.5a36.05,36.05,0,0,0-2.89,7,29.23,29.23,0,0,1-3.11,7,36.47,36.47,0,0,1-10.67,10.14c-1.38.91-2.89,1.57-4.26,2.55a18,18,0,0,0-4,3.22c-.51.64.62,1.34,1.19,1,1.35-.8,2.68-1.88,3.94-2.72s2.5-1.5,3.71-2.28a37.61,37.61,0,0,0,6-4.48,27.2,27.2,0,0,0,4.6-5.8,33.76,33.76,0,0,0,2.88-7.06c.44-1.39.7-2.85,1.11-4.26a34.83,34.83,0,0,1,1.54-4.1c0-.06,0-.3-.07-.18S407.8,417.51,407.84,417.5Z" style="fill:#BA68C8"></path><path d="M407.8,417.41a24.18,24.18,0,0,1-3,2.47c-1.12.74-2.35,1.32-3.52,2-2.54,1.48-5.28,2.55-7.63,4.39A31.77,31.77,0,0,0,383.4,440a18.24,18.24,0,0,0-.91,4.66,15.47,15.47,0,0,1-1.05,4.65c-.24.51.35,1.22.79.75a6.58,6.58,0,0,0,1.42-3.77,31.93,31.93,0,0,1,.61-4.23,28.6,28.6,0,0,1,3.37-7.76,26.63,26.63,0,0,1,6-6.37,81.7,81.7,0,0,1,7.53-4.77c1.28-.78,2.63-1.5,3.83-2.37a12.82,12.82,0,0,0,3-3.07c.07-.1,0-.47-.17-.32S407.82,417.39,407.8,417.41Z" style="fill:#BA68C8"></path><path d="M362.44,473.58a20,20,0,0,0-2.67-.18c-.85,0-1.64.08-2.47.13-1.56.11-3.1.42-4.66.45-2.88,0-5.7.29-8.53-.38a35.35,35.35,0,0,1-13.41-6.45c-1.16-.87-1.94-2-3-3s-2.23-2.21-3.72-2.6c-.78-.2-.72.67-.26,1.09s1.15.86,1.67,1.29,1,.93,1.47,1.41c1,.95,1.8,2,2.86,2.9a32,32,0,0,0,6.51,4.4,29.76,29.76,0,0,0,7.57,2.49,35.34,35.34,0,0,0,8.36.28c1.75-.11,3.54-.44,5.29-.62.83-.08,1.67-.19,2.51-.29s1.66-.21,2.49-.32c.25,0,.26-.51,0-.55S362.48,473.59,362.44,473.58Z" style="fill:#BA68C8"></path><path d="M367.29,474.87a17.38,17.38,0,0,1-3.52-1,14,14,0,0,1-2.93-1.73c-1.85-1.43-3.39-3.1-5.16-4.62a26.32,26.32,0,0,0-5.84-4.05,23.61,23.61,0,0,0-6.25-1.91,23.17,23.17,0,0,0-7.66,0c-.91.16-.36,1.23.33,1.35a15.65,15.65,0,0,0,2.35.16c.68,0,1.22,0,1.84,0a22.13,22.13,0,0,1,3.05.23A24,24,0,0,1,349,465a30.89,30.89,0,0,1,5.86,3.72c1.86,1.42,3.63,3,5.53,4.34a16.39,16.39,0,0,0,3.11,1.73,9.78,9.78,0,0,0,1.73.49,4.41,4.41,0,0,0,.94,0l1,0a.23.23,0,0,0,.09-.45C367.09,474.82,367.32,474.87,367.29,474.87Z" style="fill:#BA68C8"></path><path d="M350.14,471.38a66.41,66.41,0,0,0-8.25-5.59,42.6,42.6,0,0,0-4.51-2.19,38.16,38.16,0,0,0-3.81-1.32,13,13,0,0,0-1.92-.46,2.43,2.43,0,0,0-1.58.05c-.54.25-.08,1,.24,1.14a13.78,13.78,0,0,0,3,.78c.92.22,1.67.41,2.47.68a40.9,40.9,0,0,1,4.8,1.89c3.24,1.61,6.29,3.47,9.51,5.12,0,0,.07-.08,0-.1S350.14,471.37,350.14,471.38Z" style="fill:#BA68C8"></path><path d="M362.4,437.52a4.57,4.57,0,0,0-1.84.14,7.41,7.41,0,0,0-1.76.82,18.4,18.4,0,0,0-2.95,2.25c-1.93,1.86-3.52,4-5.26,6-3.56,4.16-7,8.2-11.62,11.31-2.5,1.7-5.46,2.12-8.34,2.82-.86.21-.29,1.34.4,1.24a24.88,24.88,0,0,0,14-6.72c4-3.77,6.88-8.3,10.54-12.35a22.33,22.33,0,0,1,3.26-2.95,12,12,0,0,1,1.71-1c.61-.33,1.29-.68,1.88-1.07.14-.09.2-.45,0-.48S362.42,437.53,362.4,437.52Z" style="fill:#BA68C8"></path><path d="M345.65,444.13a13.62,13.62,0,0,0-2.3,1,16.14,16.14,0,0,0-2,1.42c-1.3,1-2.51,2.15-3.7,3.3-2.43,2.34-4.85,4.68-7.47,6.8a24.2,24.2,0,0,1-2.34,1.6,12.91,12.91,0,0,0-2.48,1.41c-.61.64-.11,1.29.67,1.23a5.57,5.57,0,0,0,2.24-1,16.77,16.77,0,0,0,1.94-1.4,44,44,0,0,0,3.65-3.45c2.4-2.53,4.74-5.09,7.33-7.43a20,20,0,0,1,2.22-1.65q1.13-.79,2.28-1.5c.08,0,.11-.3,0-.26S345.67,444.12,345.65,444.13Z" style="fill:#BA68C8"></path><path d="M362.37,437.48a51.45,51.45,0,0,0-17.75,2.74,35.12,35.12,0,0,0-8.51,4.6,66.54,66.54,0,0,0-7.77,6.83c-3,2.9-6,5.9-8.93,8.92-.57.61.37,1.69,1,1.16,2.78-2.39,5.37-5.32,8-7.76s4.86-5,7.75-7a54.37,54.37,0,0,1,16.79-7.75,50.34,50.34,0,0,1,9.39-1.24c.22,0,.28-.48.05-.48S362.32,437.43,362.37,437.48Z" style="fill:#BA68C8"></path></g><g id="freepik--leaves--inject-65" style="opacity:0.2"><path d="M77.13,226.31c-6.75,5.74-12.65,11.45-17.57,18.9a78.62,78.62,0,0,0-9.77,21.15,172.09,172.09,0,0,0-5.41,23.72C43,300.43,44,310.8,45.94,320.57a106.13,106.13,0,0,0,8.79,26.78c3.73,7.69,8,14.9,13.74,21.14a168.43,168.43,0,0,0,40.64,32.95c6.5,3.67,14,6.2,21,8.77,4.06,1.49,8.32,2.29,12.43,3.35,1.79.46,3.6.76,5.31,1.07s3.14.43,4.74.85l.8.23.52.16c.08,0-.23,0-.13,0s.08,0,.11,0c1.67.55,2.37,2.9.25,3.23-.07,0-.22,0-.17,0l.69-.14a6.92,6.92,0,0,1-3.58.2c-1.63-.24-3-.41-4.53-.75-4.24-.95-8.31-1.61-12.52-3-7.36-2.36-14.92-4.83-21.85-8.49-15.76-8.33-29.11-19.07-41.65-31.84-13.2-13.44-20.83-29.53-25.68-47.72a104.1,104.1,0,0,1-3.64-30.57c.24-8,3.2-18.3,5.22-26.14a81.87,81.87,0,0,1,8.67-21.29c4.38-7.57,10.14-13.38,16.5-19.08,1.79-1.6,3.47-2.75,5.28-4.16.17-.13.42,0,.22.16Z" style="fill:#BA68C8"></path><path d="M90.68,217.18a20.2,20.2,0,0,0-5.82,7.54c-1.46,3-2.26,6.21-4.16,9.13C77.34,239,72.5,242.61,67,245.4a58.34,58.34,0,0,1-9.93,3.69.87.87,0,0,1-1-.34c-.18-.35.08-.65.43-.75,6-1.83,11.73-4.19,16.75-8a26,26,0,0,0,6.18-6.52c1.89-2.91,3-6,4.7-9.05s3.48-5.63,6.48-7.41c.17-.11.25.07.11.18Z" style="fill:#BA68C8"></path><path d="M90.93,216.64a11.54,11.54,0,0,1-2.54,1.12c-.9.32-1.85.57-2.79.83-1.89.54-3.8.95-5.68,1.61a41.36,41.36,0,0,0-9.12,4.32,30.81,30.81,0,0,0-7.7,6.9,35.41,35.41,0,0,0-4.94,9.34c-.7,1.85-1.25,3.78-1.78,5.68q-.41,1.44-.75,2.88a9.72,9.72,0,0,1-.39,1.48c-.18.44-.36.92-.52,1.31s-1,.65-1.06.13a14.09,14.09,0,0,1,.31-2.91c.18-.93.36-1.81.61-2.72.47-1.75,1-3.5,1.57-5.21a38.9,38.9,0,0,1,4.66-9.62,30.23,30.23,0,0,1,7.81-7.53,36.72,36.72,0,0,1,9.63-4.38c2.06-.67,4.15-1,6.23-1.5,1.1-.27,2.18-.52,3.26-.84s2.11-.75,3.19-1c.1,0,0,.1,0,.13Z" style="fill:#BA68C8"></path><path d="M47.11,232.56a40,40,0,0,1-2.89,8.93c-.65,1.54-1.32,3-2,4.59a45.4,45.4,0,0,0-1.86,4.67,21,21,0,0,0-1,10.25,31.55,31.55,0,0,0,3.94,9.86,25.2,25.2,0,0,1,2.18,3.74,11,11,0,0,1,.64,2.59,5.14,5.14,0,0,1-.54,3.64.62.62,0,0,1-1.09-.14,27.19,27.19,0,0,1-.28-3.34,8.91,8.91,0,0,0-.58-2,27.26,27.26,0,0,0-1.75-3.13,33.16,33.16,0,0,1-4-10.07,21.66,21.66,0,0,1,.62-10.46,45.13,45.13,0,0,1,4-8.7,46.12,46.12,0,0,0,4.34-10.36c0-.15.39-.3.35-.09Z" style="fill:#BA68C8"></path><path d="M46.94,233.38a31.94,31.94,0,0,1-.08,3.53c-.08,1.17-.26,2.41-.29,3.62a22.18,22.18,0,0,0,.91,7.1c1.38,4.61,2.8,9.08,2.76,14a20.55,20.55,0,0,1-.51,3.95,16.36,16.36,0,0,1-.58,2,15.32,15.32,0,0,1-.85,1.87c-.29.53-1.18.21-1-.32a33,33,0,0,0,1.35-7.48,25.1,25.1,0,0,0-.73-6.81c-1.13-4.7-2.66-8.89-2.42-13.77.06-1.21.32-2.37.5-3.61s.46-2.6.6-3.85c0-.14.36-.36.37-.16Z" style="fill:#BA68C8"></path><path d="M74.35,247.22A28.61,28.61,0,0,0,71,254.9a27.17,27.17,0,0,1-3.8,7.88,32.39,32.39,0,0,1-6.55,6.41c-1.25.95-2.49,1.76-3.92,2.69s-3.14,1.85-4.61,3a26,26,0,0,0-4,4,25.51,25.51,0,0,0-1.81,2.45,33.42,33.42,0,0,1-2,3c-.21.26-1,.4-.83-.13A15,15,0,0,1,46.26,279a27.12,27.12,0,0,1,3.48-3.89c2.64-2.32,5.83-4,8.54-5.84a34.63,34.63,0,0,0,7-6,28.32,28.32,0,0,0,4.42-7.59c.65-1.52,1.12-3,1.82-4.48a18.42,18.42,0,0,1,2.61-4c.07-.09.3-.14.2,0Z" style="fill:#BA68C8"></path><path d="M73.48,248.13c-.65,1.93-2.2,2.92-3.81,3.92-2.32,1.43-4.56,2.57-6.87,4a43.56,43.56,0,0,0-11.16,9.12,29,29,0,0,0-4.13,7.4c-.15.35-1,.38-.87-.05A23.48,23.48,0,0,1,53.84,261c3.9-3.52,8.12-5.75,12.63-8.13,1.36-.71,2.65-1.27,3.94-2a6.33,6.33,0,0,0,2.88-2.72c0-.06.22-.17.19-.06Z" style="fill:#BA68C8"></path><path d="M65.14,258.18c-2.57,3-5.7,4.85-8.82,7.23a32.6,32.6,0,0,0-8,8.3,30.77,30.77,0,0,0-2.72,6.36c-.14.39-1,.42-.87,0a22,22,0,0,1,4.88-9.76c2.9-3.36,6.13-5.47,9.7-7.78A29.24,29.24,0,0,0,65,258.15c.06-.07.24-.08.15,0Z" style="fill:#BA68C8"></path><path d="M43.93,252.14A28.15,28.15,0,0,0,45,262.64a54.67,54.67,0,0,1,2,10.29,13.88,13.88,0,0,1-.17,2.87,12.07,12.07,0,0,1-.31,1.37,6.66,6.66,0,0,1-.28.8,2.58,2.58,0,0,1-.51.73c-.18.21-.73.46-.74,0a10.65,10.65,0,0,1,.13-1.53c.08-.54.17-.92.26-1.6a16.28,16.28,0,0,0,.19-2.5A30.49,30.49,0,0,0,45,268.2c-.62-3.38-1.45-6.62-1.77-10.07a21.26,21.26,0,0,1,.46-5.89c0-.11.26-.26.24-.1Z" style="fill:#BA68C8"></path><path d="M47.05,328.56A12.19,12.19,0,0,1,38,327.5a21.37,21.37,0,0,1-7.6-6.52c-4.39-6-7-13-11.44-19a18,18,0,0,0-4-3.75,24.79,24.79,0,0,0-5.27-2.72c-.4-.16,0-.58.34-.48,6.62,2.25,10.36,6.88,13.83,12.65,2.21,3.7,3.86,7.23,6.19,10.74a24.9,24.9,0,0,0,7,7.36,14.16,14.16,0,0,0,4.59,1.93,13.51,13.51,0,0,0,5,0c.5-.06,1.1.63.4.82Z" style="fill:#BA68C8"></path><path d="M43.61,315.62c-.76-1.22-1.61-2.42-2.4-3.58s-1.51-2.3-2.3-3.42a30.77,30.77,0,0,0-5.21-5.78A28.39,28.39,0,0,0,20.24,296c-3.55-.69-6.93-.47-10.47-.54-.29,0-.06-.34.11-.37a31.92,31.92,0,0,1,9.31-.05,26.11,26.11,0,0,1,7.88,2.2A33,33,0,0,1,39,307.18a37.9,37.9,0,0,1,2.45,3.9c.8,1.36,1.5,3,2.22,4.49,0,0,0,.08,0,.05Z" style="fill:#BA68C8"></path><path d="M45.18,325.61a7.11,7.11,0,0,0-1.22-3c-.61-1-1.29-2.18-2-3.25-1.31-2.08-2.73-4.19-4.25-6.14a57,57,0,0,0-10-9.81c-1.07-.84-2.2-1.5-3.32-2.31a23.9,23.9,0,0,0-3.6-2.11s0-.12.07-.1a43,43,0,0,1,6.18,3.26,55.78,55.78,0,0,1,6,4.41,49.55,49.55,0,0,1,9.57,11.46c.77,1.24,1.47,2.53,2.1,3.77a8.16,8.16,0,0,1,1.14,3.69c0,.35-.65.5-.7.1Z" style="fill:#BA68C8"></path><path d="M61.39,333.73c1.64,4.73,1.81,9.36,1.79,14.25a60.83,60.83,0,0,0,.28,7.63,28.57,28.57,0,0,0,1.94,7.47,34.56,34.56,0,0,0,1.87,4c.73,1.34,1.88,2.69,2.7,4a.69.69,0,0,1-.46,1,1.49,1.49,0,0,1-.85,0,1.21,1.21,0,0,1-.64-.43c0-.09.22.21.16.14a2.73,2.73,0,0,1-.35-.32c-.13-.16-.22-.22-.44-.49s-.48-.53-.81-1a20.26,20.26,0,0,1-1.22-1.84,39,39,0,0,1-1.8-3.6,30.7,30.7,0,0,1-2.23-7.82,41.62,41.62,0,0,1-.13-7.64c.11-2.55.46-4.85.5-7.4a29.19,29.19,0,0,0-.82-7.62c-.06-.24.4-.62.51-.32Z" style="fill:#BA68C8"></path><path d="M60.59,316.25c-.12,2.62-1.05,4.87-1.87,7.3A29.39,29.39,0,0,0,57,331a31.24,31.24,0,0,0,2.45,14.62c.63,1.54,1.3,3,1.88,4.59a23.44,23.44,0,0,1,1.45,4.92c.1.82-1.37.74-1.63.11-.6-1.47-1.07-3.18-1.61-4.61s-1.08-2.67-1.61-4a33,33,0,0,1-2-7.25,27.71,27.71,0,0,1-.25-7.39,31.56,31.56,0,0,1,1.92-7.36c.51-1.36,1.11-2.69,1.64-4a26.81,26.81,0,0,0,1.2-4.2c0-.07.18-.23.17-.09Z" style="fill:#BA68C8"></path><path d="M60.67,316.2a18.49,18.49,0,0,0,.9,3.79c.43,1.25,1,2.51,1.58,3.76a80.55,80.55,0,0,1,3.42,8.08,27.54,27.54,0,0,1,0,17.17,21.71,21.71,0,0,1-1.93,4.21,10,10,0,0,0-1.7,4.33c0,.56-1,.74-1.13.14a5.85,5.85,0,0,1,1-3.83,32.88,32.88,0,0,0,1.92-3.74,27.36,27.36,0,0,0,1.91-8.23,26.24,26.24,0,0,0-1-8.7,78.92,78.92,0,0,0-3.08-8.35c-.57-1.39-1.18-2.81-1.61-4.23a10.13,10.13,0,0,1-.52-4.25c0-.13.29-.38.32-.15Z" style="fill:#BA68C8"></path><path d="M65.21,386.43c.7.47,1.56,1,2.2,1.54s1.25,1.09,1.87,1.63c1.17,1,2.12,2.25,3.33,3.25a32.86,32.86,0,0,0,7,4.89,31.37,31.37,0,0,0,15.1,2.64c1.47-.08,2.76-.44,4.25-.63a10.93,10.93,0,0,1,4.66,0c.76.25.21,1-.42,1.06s-1.5.07-2.18.1a19.63,19.63,0,0,0-2,.23c-1.36.2-2.7.51-4.1.61a32.63,32.63,0,0,1-8.08-.29,26.69,26.69,0,0,1-7.78-2.39,33.29,33.29,0,0,1-6.87-4.89c-1.31-1.18-2.49-2.54-3.76-3.76-.61-.58-1.21-1.2-1.81-1.78s-1.17-1.22-1.75-1.8c-.17-.18.12-.57.32-.44Z" style="fill:#BA68C8"></path><path d="M60.75,384.35a13.55,13.55,0,0,0,6.58,2c2.29.08,4.41-.19,6.72-.33a29.09,29.09,0,0,1,7.23.35,23.87,23.87,0,0,1,6.14,2.06,24.36,24.36,0,0,1,6.34,4.39c.66.66-.45,1.28-1.09,1s-1.52-.89-2.09-1.27-1-.7-1.49-1a26.07,26.07,0,0,0-2.63-1.57A24,24,0,0,0,81,388.07a33.64,33.64,0,0,0-6.92-.64c-2.33,0-4.61.05-6.92-.11a14.15,14.15,0,0,1-3.44-.66,9.56,9.56,0,0,1-1.63-.74,3.44,3.44,0,0,1-.71-.55c-.26-.21-.62-.45-.81-.63s.06-.49.23-.39Z" style="fill:#BA68C8"></path><path d="M76.9,392.5a74.06,74.06,0,0,1,10.11.93,44.73,44.73,0,0,1,5,1.07,29.43,29.43,0,0,1,3.88,1.38,18,18,0,0,1,1.81.87,2.61,2.61,0,0,1,1.22,1c.29.52-.59.82-1,.74a13.31,13.31,0,0,1-2.87-1.35c-.86-.41-1.53-.71-2.33-1a37.24,37.24,0,0,0-5.08-1.49c-3.61-.77-7.24-1.12-10.81-2-.05,0,0-.11,0-.11Z" style="fill:#BA68C8"></path><path d="M86,359.14a4.71,4.71,0,0,1,1.37,1.19,9,9,0,0,1,.91,1.72,17.45,17.45,0,0,1,1,3.57,56.3,56.3,0,0,1,.69,8c.21,5.43.6,10.74,3,15.72a21.6,21.6,0,0,0,5.65,6.83c.68.58-.48,1.27-1,.86a20.6,20.6,0,0,1-8.17-13.2c-1.06-5.42-.56-10.73-1.15-16.16a22.22,22.22,0,0,0-.9-4.33,11.59,11.59,0,0,0-.78-1.82c-.3-.62-.64-1.32-.89-2-.06-.17.12-.49.3-.38Z" style="fill:#BA68C8"></path><path d="M94.66,374.82a13,13,0,0,1,1.25,2.11,18.81,18.81,0,0,1,.77,2.3,39.76,39.76,0,0,1,.95,4.74,60.75,60.75,0,0,0,2.05,9.71,27.76,27.76,0,0,0,1,2.64,17,17,0,0,1,1.29,2.6c.17.81-.8,1.06-1.32.57a7,7,0,0,1-1.24-2.17,20.63,20.63,0,0,1-.8-2.24,38.76,38.76,0,0,1-1-4.85c-.51-3.39-.66-6.77-1.41-10.1a25,25,0,0,0-.78-2.59c-.3-.85-.56-1.7-.91-2.51,0-.08.09-.3.16-.21Z" style="fill:#BA68C8"></path><path d="M104,390.84c.44,2.28.92,4.56,1.43,6.82.26,1.14.54,2.27.8,3.4.13.56.18,1.46-.67,1.09a3.08,3.08,0,0,1-1.55-2.74,18.28,18.28,0,0,0-.48-2.29c-.31-1.51-.59-3-.9-4.54-.71-3.44-1.08-6.69-2-10a51.92,51.92,0,0,0-8.47-16.21,43.79,43.79,0,0,0-6.37-6.82c-.17-.14.07-.55.26-.41h0a42.62,42.62,0,0,1,11.83,13.22,41.33,41.33,0,0,1,4,8.54A82.74,82.74,0,0,1,104,390.84Z" style="fill:#BA68C8"></path></g><g id="freepik--leaves--inject-65"><path d="M50.21,196.71c9.23-9.94,3.66-16.76,1.93-23.14a20.68,20.68,0,0,1,.92-13.1c-5.52,5.31-9.62,14.54-7.65,22.24C47.07,189.17,50.61,192.59,50.21,196.71Z" style="fill:#e0e0e0"></path><path d="M55.36,210.21c7.89-2.77,13.31-8.6,14.51-16.62s4.86-12.42,4.86-12.42C58.12,188.94,55,204.25,55.36,210.21Z" style="fill:#e0e0e0"></path></g><g id="freepik--leaves--inject-65"><path d="M458.5,323.84c5.54-10.71-.84-15.22-3.84-20.26a18.38,18.38,0,0,1-2.33-11.43c-3.46,5.85-4.78,14.72-1.26,20.85C454,318.14,457.87,320.22,458.5,323.84Z" style="fill:#e0e0e0"></path><path d="M466.13,334.17c6.09-4.25,9.34-10.53,8.46-17.68a23.83,23.83,0,0,1,1.21-11.78C463.43,315.31,464.4,329.15,466.13,334.17Z" style="fill:#e0e0e0"></path></g></g><g id="freepik--Character--inject-65"><g id="freepik--character--inject-65"><g id="freepik--Top--inject-65"><path d="M134.44,160.81c4-2,28.61-9,28.61-9,5.87-1,22.6,1.91,22.6,1.91s13,2.61,19.22,4.3c10,2.75,13.58,7.54,24.31,18.37,10.88,11,12.1,17.6,12,28.33-.12,10.24-8.45,17.52-8.45,17.52a137.35,137.35,0,0,1-.85,18.16c-16.15,11.89-66.07,14.6-81.34.18-.52-16-8.65-24.88-13.11-39.77C132.82,185.53,126.64,164.67,134.44,160.81Z" style="fill:#ffa8a7"></path><polygon points="149.45 194.49 150.9 187.74 152.72 198.51 149.45 194.49" style="fill:#f28f8f"></polygon><path d="M214.87,80.43c-3.62-4.23-6.44-5.9-9.16-8.05C202.16,67.65,195,65,189.17,64.67c-22.4-1.22-29.55,9.86-30.75,14-10.59,1.56-17.62,19.48-8.7,36a2.74,2.74,0,0,0,.71,1.34c3.23,2.37,13.31,4.82,13.31,4.82s12.35,4.5,27.69-1.64,24-10,26.34-13.09C222.25,96.85,219.66,87.55,214.87,80.43Z" style="fill:#263238"></path><path d="M168.85,69.9c-1.68-5.28-7.27-6.68-12.42-6.67-6,0-9.14,3.74-11.15,9-5.32-.73-11.14.29-15.06,4.34-2.77,2.86-3.67,6.48-3.36,10.41.29,3.54,2.14,5.42,4.35,7.88-3.91,1.5-6,6.13-4.69,10.35.75,2.47,10.14,11.57,2.66,12.37,3.43,2.33,9.19.28,8.76-4.39a10.38,10.38,0,0,0,10.17,10.67c8.37.31,15.12-4.35,17-12.46" style="fill:#263238"></path><path d="M217.61,95.26a58.85,58.85,0,0,1,1.1,7.36,120.93,120.93,0,0,1,.52,14.86c-.63,21.14-5,26-10.86,28.43-3.47,1.42-9.18,1.46-16,.28l-.27,12.34s18.39,13.69,3.68,16.33c-7.35,1.33-16.5-1.14-23-5.79-6.68-4.75-9.46-9.14-9.46-9.14l-.78-28.34s-3.61,3.88-10.33-1.41c-5.55-4.37-7.74-12.11-3.82-16.52s11.47-3.84,15.2,2.1c2.66,4.23,5.55.14,5.44-4.9a96.85,96.85,0,0,1,.42-11.68c.35-3.88,1.93-10.66,8.2-14.34,3.61-2.12,11.06-4.58,20.22,1.75C204.19,78.94,214.76,82.88,217.61,95.26Z" style="fill:#ffa8a7"></path><path d="M213.57,90.56C211.9,87.48,210,85,204.8,85.07c-2.6,0-4.53,3-7.45,3-3.39,0-5-2.43-11.84-2.67a13.07,13.07,0,0,0-8.63,3.1c-4.64,4.34-6.2,10.46-6.47,20.29-.21,7.89-2.48,20.77,4,26.83,8.1,7.58,18.85,9.51,25.37,9.51s15.12.4,16.84-18.92S216.53,96,213.57,90.56ZM180.16,103.2c3.42-3.08,9-2.66,11.37-.23a5.34,5.34,0,0,1-1.6,8.56c-3.56,1.8-9.25,2.43-11.53-.21C176.85,109.54,177,106.05,180.16,103.2Zm18.2,28.92c-4.4,4.4-12.71,1.8-13.62-3.42-.47-2.57.35-4.1,2.1-4.34s3.1,1.38,5.9,2.09c3.61.9,4.75,0,6.31,1.3C200.14,128.6,200,130.5,198.36,132.12ZM215,110.63c-2.17,2.48-7.53,1.84-10.88.14a5.06,5.06,0,0,1-1.49-8.12c2.24-2.27,7.55-2.67,10.79.29C216.42,105.63,216.52,109,215,110.63Z" style="fill:#BA68C8"></path><path d="M213.57,90.56C211.9,87.48,210,85,204.8,85.07c-2.6,0-4.53,3-7.45,3-3.39,0-5-2.43-11.84-2.67a13.07,13.07,0,0,0-8.63,3.1c-4.64,4.34-6.2,10.46-6.47,20.29-.21,7.89-2.48,20.77,4,26.83,8.1,7.58,18.85,9.51,25.37,9.51s15.12.4,16.84-18.92S216.53,96,213.57,90.56ZM180.16,103.2c3.42-3.08,9-2.66,11.37-.23a5.34,5.34,0,0,1-1.6,8.56c-3.56,1.8-9.25,2.43-11.53-.21C176.85,109.54,177,106.05,180.16,103.2Zm18.2,28.92c-4.4,4.4-12.71,1.8-13.62-3.42-.47-2.57.35-4.1,2.1-4.34s3.1,1.38,5.9,2.09c3.61.9,4.75,0,6.31,1.3C200.14,128.6,200,130.5,198.36,132.12ZM215,110.63c-2.17,2.48-7.53,1.84-10.88.14a5.06,5.06,0,0,1-1.49-8.12c2.24-2.27,7.55-2.67,10.79.29C216.42,105.63,216.52,109,215,110.63Z" style="fill:#fff;opacity:0.8"></path><path d="M187.24,126.23l9.71,2.88a5,5,0,0,1-6.19,3.59A5.3,5.3,0,0,1,187.24,126.23Z" style="fill:#b16668"></path><path d="M187.34,129.32a4.26,4.26,0,0,1,6.12,3.38,4.86,4.86,0,0,1-2.7,0A5.16,5.16,0,0,1,187.34,129.32Z" style="fill:#f28f8f"></path><path d="M212.88,103.28l-6.16-2.21a3.14,3.14,0,0,1,4.08-2A3.44,3.44,0,0,1,212.88,103.28Z" style="fill:#263238"></path><path d="M185.66,101l-5.9,2.85a3.15,3.15,0,0,1,1.4-4.34A3.44,3.44,0,0,1,185.66,101Z" style="fill:#263238"></path><polygon points="195.77 104.92 197.15 124.4 206.29 123.44 205.44 120.05 195.77 104.92" style="fill:#BA68C8"></polygon><g style="opacity:0.6000000000000001"><polygon points="195.77 104.92 197.15 124.4 206.29 123.44 205.44 120.05 195.77 104.92" style="fill:#fff"></polygon></g><polygon points="197.15 124.4 205.44 120.05 206.72 123.69 197.15 124.4" style="fill:#f28f8f"></polygon><path d="M192.36,146.19c-6.84-.54-21.36-7.77-23.82-13.18a14.07,14.07,0,0,0,6.7,10.05c6.55,4.09,17,7.14,17,7.14Z" style="fill:#f28f8f"></path><path d="M181.5,109.41c.15,1.61,1.26-.84,3.11-1.14s3.82,1.67,3.6.06-2-2.63-3.82-2.33S181.31,107.5,181.5,109.41Z" style="fill:#263238"></path><path d="M212.3,108.48c-.25,1.61-1.21-.9-3.05-1.31s-3.9,1.44-3.59-.15,2.11-2.51,3.94-2.11S212.59,106.59,212.3,108.48Z" style="fill:#263238"></path><path d="M194.05,73.56c-5.79.15-13.84.82-22.38,8.45s-10.29,24.3-9.46,32.65c-3.43-3.49-7.2-4.58-11.37-2.84,0,0-1.37-17.42,8.24-29C171.23,68.11,190.64,69,190.64,69c7.24.14,11.72,1.26,15.07,3.42a20.57,20.57,0,0,1,9.16,8.05C209.92,75.44,204.73,73.28,194.05,73.56Z" style="fill:#BA68C8"></path><path d="M188.61,71.65s12,.42,13.26-9.39-.37-10.6-8.13-6.4C188.54,58.67,185.16,63.77,188.61,71.65Z" style="fill:#BA68C8"></path><path d="M188.61,71.65s12,.42,13.26-9.39-.37-10.6-8.13-6.4C188.54,58.67,185.16,63.77,188.61,71.65Z" style="opacity:0.25"></path><path d="M188.61,71.65S177.09,75.2,173.36,66s-2.41-10.32,6.17-8.3C185.28,59.1,189.88,63.14,188.61,71.65Z" style="fill:#BA68C8"></path><path d="M188.61,71.65S177.09,75.2,173.36,66s-2.41-10.32,6.17-8.3C185.28,59.1,189.88,63.14,188.61,71.65Z" style="opacity:0.15"></path></g><g id="freepik--Towel--inject-65"><path d="M222.73,178.84c-14.89-2.28-54.89,3.26-85.12,22.7,0,0-2-.07,2.1,11.73s2.87,26.93-1.15,37.1c-2.4,6.07-13.06,17.24-14.8,48.4s-2.69,100.75-2.69,100.75,21.14,12.5,47.57,12.33l3.74-44,4.72,54.85s43.65,5.28,72.45-12.89c0,0-6.75-102.86-8.39-130.16s-5-54.3-5-54.3a31.87,31.87,0,0,0,5-28.44C237.86,186.24,222.73,178.84,222.73,178.84Z" style="fill:#BA68C8"></path><path d="M222.73,178.84c-14.89-2.28-54.89,3.26-85.12,22.7,0,0-2-.07,2.1,11.73s2.87,26.93-1.15,37.1c-2.4,6.07-13.06,17.24-14.8,48.4s-2.69,100.75-2.69,100.75,21.14,12.5,47.57,12.33l3.74-44,4.72,54.85s43.65,5.28,72.45-12.89c0,0-6.75-102.86-8.39-130.16s-5-54.3-5-54.3a31.87,31.87,0,0,0,5-28.44C237.86,186.24,222.73,178.84,222.73,178.84Z" style="fill:#fff;opacity:0.2"></path><path d="M121.33,383.52c.06-3.64.13-7.74.22-12.18,17.79,10.22,42.23,11.27,49.57,11.34l-1,11.85C162.62,394.44,138.91,393.34,121.33,383.52Z" style="fill:#455a64"></path><path d="M176.2,412.28,175,398c11.8.56,45.69.67,72.89-13.88.39,5.91.73,11.09,1,15.25C220.77,413.62,186.27,412.87,176.2,412.28Z" style="fill:#455a64"></path><path d="M168,192.78s-6.44,40.42,19.14,68.08C187.1,260.86,171.53,229.52,168,192.78Z" style="opacity:0.15"></path><path d="M200.14,217.75c-14.89-4.94-27.77-16.27-29.75-23.26C171.53,208.8,183.41,217.08,200.14,217.75Z" style="opacity:0.15"></path><path d="M157.5,191.09c-2.88,22.17-1.51,33.31-.78,55.92,1,32.53,13.17,149.44,13.17,149.44l2.49-29.28c-3.88-46.43-10.85-153-5.27-179.74C163.25,188.77,161.32,189.41,157.5,191.09Z" style="opacity:0.25"></path></g><path d="M118.45,264.72c-5.09-4.15-5.25-11.25-5.21-22.78,0-11.33,2.1-30.8,3.13-42.78,1.53-17.75,2.95-26.9,8.92-33.18s15.6-8,23-9.82c6.45-1.62,5.25,22.11,1.19,38.33l-7.73,48.93Z" style="fill:#ffa8a7"></path><path d="M148.52,200.39c-1.56.9-7.66,6.66-10.76,10-5.33,5.78-12.84,13.31-16.91,26.07,4-5.51,10.61-11.68,15.17-16.26,3.61-3.63,7.41-7.74,11.25-11.93Z" style="fill:#f28f8f"></path><path d="M226.09,141.77s-.77-.48-.84-2.23.21-2.94.16-4.89-.55-5.24-2.29-5.75-3,3.48-3.4,6.77-.61,5.23-3.17,8.73-4.86,8.1-3,12.49Z" style="fill:#f28f8f"></path><path d="M238.56,136.4c-.66-3.31-.16-7.36-.25-10a27.79,27.79,0,0,0-1.49-7.5c-.81-2.64-1.31-6.06-2.19-6.47s-2.52.46-2.64,2.48c0,0-1.06-1.59-1.93-3.23s-1.39-3.64-2.8-4.11-2.32,1.76-2,3.4.67,2.6.67,2.6-1.47.52-.5,3.51a14.94,14.94,0,0,0,1.69,3.41c.27,2.25.26,3.34,1.17,5.26a26.27,26.27,0,0,0,1.39,5.73c-.65,1.48-2,3.17-2.26,5.8s.14,3.29-3.17,6.17c-2.23,1.94-5.94,4.06-8.12,6.82s-3.78,5.73-1.64,9.75,3.82,6.94,5.79,11.15c1.49,3.17,3.82,8.28,9.84,23.25,4.67,11.63,7.15,19,10.79,24.78s8.72,11,18.23,15.81,20.9,4.43,20.14-3.92c-.91-10-2.38-19.08-6.36-24.75s-6.75-7.41-11.58-11.9a222.33,222.33,0,0,1-19.19-21.15c-5.29-6.78-9.66-14.58-9.45-16.73.34-3.63,3.41-8.78,4.45-11.41C238.77,141.2,239.4,141.4,238.56,136.4Z" style="fill:#ffa8a7"></path><path d="M213.54,156.89c.29,2,1.55,3.66,2.43,5.49s1.85,3.6,2.72,5.42,1.76,3.64,2.58,5.49,1.67,3.69,2.45,5.55c-1-1.78-1.88-3.58-2.79-5.39s-1.79-3.62-2.7-5.43l-2.66-5.44-1.34-2.72A7.3,7.3,0,0,1,213.54,156.89Z" style="fill:#b16668"></path><path d="M232,115a15.91,15.91,0,0,0,.52,2.7c.24.88.52,1.75.82,2.58l0,.13,0,.18a10.66,10.66,0,0,0-.24,1.43,10.45,10.45,0,0,0,0,1.48,9.09,9.09,0,0,0,.61,2.86l.08.23-.1.17a8.63,8.63,0,0,0-.5,1,10.82,10.82,0,0,0-.38,1.09,11.29,11.29,0,0,0-.27,1.15c-.07.39-.09.78-.13,1.19a7.12,7.12,0,0,1-.16-2.44,7.94,7.94,0,0,1,.66-2.43v.4a8.21,8.21,0,0,1-.84-3.17,9,9,0,0,1,.05-1.64,8.06,8.06,0,0,1,.35-1.63v.3a15.61,15.61,0,0,1-.55-2.77A9.51,9.51,0,0,1,232,115Z" style="fill:#f28f8f"></path><path d="M226,113.62a8.51,8.51,0,0,0,.87,1.31A10,10,0,0,0,227.9,116l.07.07,0,.15a12.08,12.08,0,0,0,1,3.11,8.75,8.75,0,0,0,1.82,2.61l.24.23-.1.32a9.45,9.45,0,0,0-.36,1.76,16.32,16.32,0,0,0-.09,1.86c0,.63.06,1.26.15,1.89s.21,1.25.32,1.9a11.89,11.89,0,0,1-.77-1.8,10.42,10.42,0,0,1-.45-1.93,10.17,10.17,0,0,1-.09-2,7.8,7.8,0,0,1,.32-2l.14.55a7.12,7.12,0,0,1-1.19-1.38,8.27,8.27,0,0,1-.84-1.58,10.71,10.71,0,0,1-.52-1.7,8.74,8.74,0,0,1-.21-1.77l.1.22a6.85,6.85,0,0,1-.92-1.37A5.48,5.48,0,0,1,226,113.62Z" style="fill:#f28f8f"></path><path d="M230.16,135.13a7.6,7.6,0,0,1-1.19,3.31,11,11,0,0,1-2.33,2.62c.29-.51.63-1,1-1.46s.64-1,.94-1.44A26.51,26.51,0,0,0,230.16,135.13Z" style="fill:#f28f8f"></path><path d="M218.93,147.43a14.74,14.74,0,0,0-1.3,6.09,11.23,11.23,0,0,0,.5,3,25,25,0,0,0,1.17,3,8.65,8.65,0,0,1-1.94-2.68,8.51,8.51,0,0,1,1.57-9.41Z" style="fill:#f28f8f"></path><path d="M170.86,171.82a27.2,27.2,0,0,1,.56-7.4c.67-3,1.4-6.18.52-7.79s-2.78-2.09-3.79.4c-.89,2.2-2.37,5.26-2.37,5.26a10.69,10.69,0,0,0,.36,4.91C167,169.24,169.31,171.51,170.86,171.82Z" style="fill:#f28f8f"></path><path d="M177.18,182.79h0c-.69-3.12-2.35-5.37-4.33-7.93-2.48-3.21-7.45-13.43-8.24-14.9s-1.36-6.64-1.91-10.06-1.15-5.68-4.59-5.19c0-.2,0-.7,0-1.84,0-2.66-.8-3.63-2-4.11a4,4,0,0,0-1.74-.23,4.9,4.9,0,0,0-.91-2.67c-1-1.37-2.2-1.51-2.84-1s-.74,2.22-1.3,6.17a60,60,0,0,0-.92,8.92,6.38,6.38,0,0,0-1.11,3.63c0,2.19,2,11.28,3.33,15.12.77,2.26,6.12,13,7.31,16.83,1.52,4.3-2.22,9.55-7.68,15.77-5.64,6.43-11.34,13.18-16.65,18.81a115.31,115.31,0,0,0-11.91,15c-3.8,5.62-6,14.82-5.83,24.36.13,8.22,10.56,8.38,19.8,3.52s14.14-10,17.61-15.79a154.82,154.82,0,0,0,11.41-23c6.67-16.06,8.63-21,9.75-24.24C176.57,193.71,178.37,188,177.18,182.79Z" style="fill:#ffa8a7"></path><path d="M150.64,168.7c1,2.38,2.16,4.67,3.26,7s2.19,4.66,3.21,7a22.26,22.26,0,0,1,1.3,3.68,8,8,0,0,1-.37,3.91,24.23,24.23,0,0,1-3.89,6.72c-1.58,2.05-3.29,4-5,5.91l-5.09,5.8c-3.41,3.86-6.85,7.69-10.45,11.37,3.46-3.81,6.79-7.73,10.14-11.64l5-5.85c1.69-1.94,3.38-3.87,4.94-5.9a24.16,24.16,0,0,0,3.85-6.56,7.59,7.59,0,0,0,.38-3.68,25.21,25.21,0,0,0-1.23-3.61C154.81,178.11,152.51,173.49,150.64,168.7Z" style="fill:#b16668"></path><path d="M158.08,144.71a1.85,1.85,0,0,0-.43,1.37c0,.5.07,1,.13,1.5l.25,3c.16,2,.25,4,.33,6,0,1,0,2.06.13,3a26.2,26.2,0,0,0,.68,2.89l1.68,5.83a43.35,43.35,0,0,1-2.46-5.58,20.41,20.41,0,0,1-.88-3,10.75,10.75,0,0,1-.12-1.56l-.07-1.52c-.06-2-.12-4.06-.11-6.09,0-1,0-2,.06-3,0-.51,0-1,.11-1.54A1.81,1.81,0,0,1,158.08,144.71Z" style="fill:#f28f8f"></path><path d="M154.39,138.53c-.65.15-.78.82-.79,1.39s0,1.2,0,1.8c0,1.21,0,2.43,0,3.65-.06,2.42-.25,4.84-.32,7.22a27.25,27.25,0,0,0,1.12,7c.56,2.33,1.28,4.65,1.9,7a59.22,59.22,0,0,1-2.63-6.79,22.12,22.12,0,0,1-1.42-7.22c0-2.46.29-4.86.51-7.26.12-1.21.23-2.4.3-3.61.05-.6.11-1.21.21-1.82a3,3,0,0,1,.29-.9A1,1,0,0,1,154.39,138.53Z" style="fill:#f28f8f"></path><path d="M148.42,150c.2,1.29.36,2.57.6,3.81s.53,2.47.89,3.69a70,70,0,0,1,2,7.47,36.29,36.29,0,0,1-1.67-3.51,32.65,32.65,0,0,1-1.32-3.67,18.8,18.8,0,0,1-.7-3.88A16,16,0,0,1,148.42,150Z" style="fill:#f28f8f"></path><path d="M164.7,224.18c2.75-6.75,5.49-13.5,8.14-20.29,1.3-3.39,2.48-6.85,3.44-10.35a22.66,22.66,0,0,0,.71-10.71l.22.15h0l-.18,0,0-.18a15,15,0,0,0-2.22-5c-1-1.54-2.25-2.91-3.23-4.52-2-3.16-3.67-6.45-5.37-9.75l-1.26-2.47c-.21-.43-.42-.8-.63-1.26a7.92,7.92,0,0,1-.43-1.36c-.43-1.83-.67-3.67-.94-5.5a53.88,53.88,0,0,0-.93-5.45,3.89,3.89,0,0,0-1.32-2.21,3.55,3.55,0,0,0-2.52-.41l-.23,0v-.25a14.37,14.37,0,0,0-.33-4.12,2.54,2.54,0,0,0-1.2-1.5,3.38,3.38,0,0,0-1.94-.36l-.2,0v-.21a4.71,4.71,0,0,0-.77-2.43,2.72,2.72,0,0,0-2-1.34,1.09,1.09,0,0,0-.95.59,4.36,4.36,0,0,0-.36,1.24c-.15.87-.24,1.77-.36,2.66L149,144.6a35.72,35.72,0,0,0-.44,5.34V150l0,0a6.48,6.48,0,0,0-1,4.52c.19,1.6.49,3.18.81,4.76a94.7,94.7,0,0,0,2.34,9.39,94.82,94.82,0,0,1-2.48-9.36c-.34-1.58-.67-3.16-.88-4.76a6.51,6.51,0,0,1,1-4.71l0,.1a35.89,35.89,0,0,1,.41-5.41l.71-5.35c.12-.89.21-1.78.35-2.68a4.85,4.85,0,0,1,.4-1.35,1.42,1.42,0,0,1,1.23-.77,3,3,0,0,1,2.34,1.48,5,5,0,0,1,.85,2.64l-.21-.19a3.82,3.82,0,0,1,2.17.39,3,3,0,0,1,1.39,1.71,7.54,7.54,0,0,1,.35,2.14l0,2.13-.25-.21a3.92,3.92,0,0,1,2.83.47,4.29,4.29,0,0,1,1.5,2.45,50.36,50.36,0,0,1,1,5.5c.28,1.82.53,3.66,1,5.44a7.09,7.09,0,0,0,.4,1.28c.18.39.42.82.62,1.23l1.25,2.48c1.68,3.3,3.37,6.6,5.3,9.74.95,1.57,2.2,2.95,3.21,4.53a15.3,15.3,0,0,1,2.25,5.13l-.22-.15h0l.18,0,0,.18c.8,3.63.19,7.38-.76,10.88s-2.18,7-3.51,10.36C170.43,210.78,167.53,217.46,164.7,224.18Z" style="fill:#b16668"></path></g></g><g id="freepik--Sparkles--inject-65"><g id="freepik--Shine--inject-65"><g style="opacity:0.5"><path d="M244.11,94a.8.8,0,0,1-.81-.73l-.07-.78a4.08,4.08,0,0,0-3.81-3.74l-.78,0a.8.8,0,0,1,0-1.6l.78-.07h0a4.07,4.07,0,0,0,3.73-3.82l.06-.78a.79.79,0,0,1,.79-.75h0a.8.8,0,0,1,.81.74l.07.77A4.09,4.09,0,0,0,248.68,87l.78.05a.8.8,0,0,1,0,1.6l-.78.07A4.07,4.07,0,0,0,245,92.5l-.05.78a.8.8,0,0,1-.79.75ZM242,87.89A5.66,5.66,0,0,1,244.07,90a5.64,5.64,0,0,1,2.06-2.11,5.56,5.56,0,0,1-2.1-2.07A5.66,5.66,0,0,1,242,87.89Z" style="fill:#BA68C8"></path></g><path d="M81.53,102.46a.43.43,0,0,1-.43-.39l0-.41a2.16,2.16,0,0,0-2-2l-.42,0a.43.43,0,0,1,0-.86l.42,0h0a2.18,2.18,0,0,0,2-2l0-.41a.41.41,0,0,1,.42-.4h0a.43.43,0,0,1,.43.39l0,.41a2.16,2.16,0,0,0,2,2l.42,0a.44.44,0,0,1,.4.43.43.43,0,0,1-.4.43l-.41,0a2.18,2.18,0,0,0-2,2l0,.41a.42.42,0,0,1-.42.4Zm-1.15-3.27a3,3,0,0,1,1.13,1.1,3,3,0,0,1,1.1-1.12,3,3,0,0,1-1.13-1.1A3,3,0,0,1,80.38,99.19Z" style="fill:#BA68C8"></path><g style="opacity:0.5"><path d="M104.42,163.17a.65.65,0,0,1-.65-.59l-.06-.64a3.3,3.3,0,0,0-3.08-3l-.63,0a.65.65,0,0,1,0-1.3l.63-.05h0a3.31,3.31,0,0,0,3-3.09l0-.63a.66.66,0,0,1,.65-.61h0a.65.65,0,0,1,.65.59l.06.63a3.3,3.3,0,0,0,3.09,3l.63,0a.65.65,0,0,1,.61.64.66.66,0,0,1-.6.66l-.63.05a3.31,3.31,0,0,0-3,3.09l0,.63a.65.65,0,0,1-.64.61Zm-1.74-5a4.64,4.64,0,0,1,1.71,1.67,4.62,4.62,0,0,1,1.67-1.7,4.64,4.64,0,0,1-1.71-1.67A4.54,4.54,0,0,1,102.68,158.2Z" style="fill:#BA68C8"></path></g><g style="opacity:0.5"><path d="M104.77,125a2.88,2.88,0,1,1,3.86-1.27A2.89,2.89,0,0,1,104.77,125Zm2.18-4.34a2,2,0,1,0,.88,2.66A2,2,0,0,0,107,120.63Z" style="fill:#BA68C8"></path></g><g style="opacity:0.5"><path d="M250.89,141.1a2.87,2.87,0,1,1,3.86-1.27A2.87,2.87,0,0,1,250.89,141.1Zm2.19-4.33a2,2,0,1,0,.87,2.66A2,2,0,0,0,253.08,136.77Z" style="fill:#BA68C8"></path></g><g style="opacity:0.5"><path d="M259.58,70.43a2.88,2.88,0,1,1,3.87-1.28A2.9,2.9,0,0,1,259.58,70.43Zm2.19-4.34a2,2,0,1,0,.88,2.66A2,2,0,0,0,261.77,66.09Z" style="fill:#BA68C8"></path></g><path d="M262.82,106.13a.39.39,0,0,1-.39-.38v-1.3a.38.38,0,0,1,.38-.39.39.39,0,0,1,.39.39v1.29A.38.38,0,0,1,262.82,106.13Z" style="fill:#BA68C8"></path><path d="M262.05,106.91h-1.29a.38.38,0,0,1-.39-.38.39.39,0,0,1,.38-.39h1.3a.39.39,0,1,1,0,.77Z" style="fill:#BA68C8"></path><path d="M262.85,109.05a.38.38,0,0,1-.39-.39l0-1.29a.39.39,0,0,1,.78,0v1.3A.39.39,0,0,1,262.85,109.05Z" style="fill:#BA68C8"></path><path d="M265,106.88l-1.29,0a.38.38,0,0,1-.39-.39.38.38,0,0,1,.38-.39H265a.38.38,0,0,1,.39.38A.38.38,0,0,1,265,106.88Z" style="fill:#BA68C8"></path><path d="M127.65,135.44a.37.37,0,0,1-.38-.38v-1.27a.37.37,0,0,1,.37-.38.37.37,0,0,1,.39.37v1.28A.38.38,0,0,1,127.65,135.44Z" style="fill:#BA68C8"></path><path d="M126.9,136.21h-1.28a.37.37,0,0,1-.38-.38.38.38,0,0,1,.38-.38h1.27a.39.39,0,0,1,.39.38A.38.38,0,0,1,126.9,136.21Z" style="fill:#BA68C8"></path><path d="M127.68,138.31a.38.38,0,0,1-.39-.37v-1.28a.39.39,0,0,1,.77,0v1.28A.38.38,0,0,1,127.68,138.31Z" style="fill:#BA68C8"></path><path d="M129.77,136.18l-1.27,0a.38.38,0,0,1-.39-.38.39.39,0,0,1,.38-.39h1.27a.4.4,0,0,1,.39.38A.38.38,0,0,1,129.77,136.18Z" style="fill:#BA68C8"></path><path d="M230.38,64.94a.4.4,0,0,1-.41-.4l0-1.36a.42.42,0,0,1,.4-.41.41.41,0,0,1,.41.41l0,1.35A.4.4,0,0,1,230.38,64.94Z" style="fill:#BA68C8"></path><path d="M229.57,65.76h-1.35a.41.41,0,1,1,0-.81h1.36a.4.4,0,0,1,.41.4A.41.41,0,0,1,229.57,65.76Z" style="fill:#BA68C8"></path><path d="M230.4,68a.4.4,0,0,1-.41-.4V66.24a.41.41,0,1,1,.81,0l0,1.35A.41.41,0,0,1,230.4,68Z" style="fill:#BA68C8"></path><path d="M232.63,65.73h-1.36a.41.41,0,1,1,0-.81h1.36a.41.41,0,0,1,0,.81Z" style="fill:#BA68C8"></path><path d="M108.85,78.23a.76.76,0,0,1-.78-.76l0-2.57a.77.77,0,0,1,.76-.77.78.78,0,0,1,.78.76l0,2.57A.77.77,0,0,1,108.85,78.23Z" style="fill:#BA68C8"></path><path d="M107.33,79.78l-2.57,0a.77.77,0,1,1,0-1.53l2.57,0a.77.77,0,0,1,.77.76A.76.76,0,0,1,107.33,79.78Z" style="fill:#BA68C8"></path><path d="M108.9,84a.77.77,0,0,1-.77-.77l0-2.56a.78.78,0,0,1,.77-.78.77.77,0,0,1,.77.76l0,2.57A.79.79,0,0,1,108.9,84Z" style="fill:#BA68C8"></path><path d="M113.11,79.73l-2.56,0a.77.77,0,0,1,0-1.54l2.57,0a.77.77,0,1,1,0,1.54Z" style="fill:#BA68C8"></path></g></g><g id="freepik--Shelf--inject-65"><g id="freepik--Hanger--inject-65"><path d="M368.19,69.71l6-3.48a3.74,3.74,0,0,1,3.77-.37c.7.4,3.31,1.92,4,2.31a3.75,3.75,0,0,1,1.57,3.46V209.29a11.86,11.86,0,0,1-5.35,9.28l-6,3.48a3.76,3.76,0,0,1-3.78.37l-4-2.32a3.75,3.75,0,0,1-1.56-3.45V79A11.83,11.83,0,0,1,368.19,69.71Z" style="fill:#BA68C8"></path><path d="M383.58,209.29a11.86,11.86,0,0,1-5.35,9.28l-6,3.48a3.76,3.76,0,0,1-3.78.37l-4-2.32a3.75,3.75,0,0,1-1.56-3.45V79a10.13,10.13,0,0,1,.91-4l19.83,11.45Z" style="fill:#fff;opacity:0.6000000000000001"></path><path d="M368.19,69.71l6-3.48a3.74,3.74,0,0,1,3.77-.37c.7.4,3.31,1.92,4,2.31a3.75,3.75,0,0,1,1.57,3.46V86.45L363.75,75A11.6,11.6,0,0,1,368.19,69.71Z" style="fill:#fff;opacity:0.7000000000000001"></path><path d="M378.23,68.54l-6,3.48a11.83,11.83,0,0,0-5.35,9.28V219c0,3.41,2.39,4.8,5.35,3.09l6-3.48a11.86,11.86,0,0,0,5.35-9.28V71.63C383.58,68.22,381.18,66.83,378.23,68.54Z" style="fill:#BA68C8"></path><path d="M378.23,68.54l-6,3.48a11.83,11.83,0,0,0-5.35,9.28V219c0,3.41,2.39,4.8,5.35,3.09l6-3.48a11.86,11.86,0,0,0,5.35-9.28V71.63C383.58,68.22,381.18,66.83,378.23,68.54Z" style="fill:#fff;opacity:0.4"></path><path d="M375.21,42.54a1.13,1.13,0,0,1,.22-.11,1.27,1.27,0,0,0,.23-.08l.06,0a2.74,2.74,0,0,1,.37-.08,1.15,1.15,0,0,1,.35-.07,4,4,0,0,1,.85,0,5.6,5.6,0,0,1,1.73.37l21.72,8.14c1.82.68,3.24-.49,3.71-2.8a8.07,8.07,0,0,0,.21-1.79V40.19c0-4.6,1.5-7.92,3.81-9a.8.8,0,0,1,.27-.12l.37-.13a4.1,4.1,0,0,1,1.56-.12l0,2.05a2,2,0,0,0-1.48.24c-1.11.68-2.43,2.94-2.43,7.07v5.87c0,2.8-.91,5-2.54,6.08,0,0,0,0,0,0l-.31.19a4.47,4.47,0,0,1-3.81.22l-21.6-8.1-.12,0a2.75,2.75,0,0,0-2.68.19c-1.48,1-2.41,3.77-2.41,7.15V85l-2.06-1.19v-32C371.15,47,372.74,43.63,375.21,42.54Z" style="fill:#ebebeb"></path><path d="M374.8,42.74a5.28,5.28,0,0,1,4.22-.23l21.72,8.14c1.82.69,3.24-.49,3.71-2.8l-21-7.87a4.79,4.79,0,0,0-4.24.23C378.79,40.45,375.25,42.5,374.8,42.74Z" style="fill:#f5f5f5"></path><path d="M404.14,52.18c.87-.47,3.28-1.83,4.21-2.37a2,2,0,0,0,.28-.19c1.63-1.13,2.54-3.29,2.54-6.1V37.67a14,14,0,0,1,.62-4.37,4.24,4.24,0,0,0-1.16-.42,2,2,0,0,0-1.48.24c-1.11.68-2.43,2.84-2.43,7.07v5.87c0,2.8-.91,5-2.54,6.08C404.16,52.14,404.16,52.16,404.14,52.18Z" style="fill:#e0e0e0"></path><path d="M373.21,51.79V85l4.45-2.53V49.27a13.65,13.65,0,0,1,.76-4.78l-.12,0a2.75,2.75,0,0,0-2.68.19C374.14,45.67,373.21,48.41,373.21,51.79Z" style="fill:#e0e0e0"></path><path d="M459.49,257.15l-83.26-48a1,1,0,0,0-1,.09,3.14,3.14,0,0,0-1.42,2.46,1,1,0,0,0,.43.92l83.26,48a1,1,0,0,0,1-.09,3.17,3.17,0,0,0,1.42-2.46A1,1,0,0,0,459.49,257.15Z" style="fill:#455a64"></path><path d="M446.49,240.1,458.8,233A3.75,3.75,0,0,0,461,229.9v-4.62a3.75,3.75,0,0,0-2.21-3.1L385.8,180a11.82,11.82,0,0,0-10.71,0l-12.32,7.11a3.76,3.76,0,0,0-2.21,3.09c0,.8,0,3.82,0,4.63a3.71,3.71,0,0,0,2.2,3.08l73,42.15A11.82,11.82,0,0,0,446.49,240.1Z" style="fill:#BA68C8"></path><path d="M385.8,180a11.82,11.82,0,0,0-10.71,0l-12.32,7.11a3.76,3.76,0,0,0-2.21,3.09c0,.8,0,3.82,0,4.63a3.71,3.71,0,0,0,2.2,3.08l73,42.15a10.18,10.18,0,0,0,3.91,1.2V211.15Z" style="fill:#fff;opacity:0.6000000000000001"></path><path d="M446.49,240.1,458.8,233A3.75,3.75,0,0,0,461,229.9v-4.62a3.75,3.75,0,0,0-2.21-3.1l-19.11-11V241.3A11.51,11.51,0,0,0,446.49,240.1Z" style="fill:#fff;opacity:0.4"></path><path d="M458.8,228.37l-12.31,7.11a11.82,11.82,0,0,1-10.71,0l-73-42.15c-2.95-1.7-2.95-4.47,0-6.18L375.09,180a11.82,11.82,0,0,1,10.71,0l73,42.14C461.76,223.89,461.76,226.66,458.8,228.37Z" style="fill:#BA68C8"></path><path d="M458.8,228.37l-12.31,7.11a11.82,11.82,0,0,1-10.71,0l-73-42.15c-2.95-1.7-2.95-4.47,0-6.18L375.09,180a11.82,11.82,0,0,1,10.71,0l73,42.14C461.76,223.89,461.76,226.66,458.8,228.37Z" style="fill:#fff;opacity:0.7000000000000001"></path><path d="M362.77,174.43l12.32-7.11v3.48l-12.32,7.12a5.19,5.19,0,0,0-1.57,1.35C360,177.67,360.51,175.74,362.77,174.43Z" style="fill:#e0e0e0"></path><path d="M399.82,188.16c-6.74-3.89-17.67-3.89-24.41,0-4.69,2.71-6.11,6.58-4.27,10l11.35,6.56c5.93,1.06,12.64.24,17.33-2.47C406.56,198.36,406.56,192.05,399.82,188.16Z" style="fill:#BA68C8;opacity:0.2"></path><g id="freepik--Jar--inject-65"><path d="M371.2,178.8c0-2.4,1.59-4.8,4.76-6.63,6.34-3.66,16.63-3.66,23,0,3.17,1.83,4.76,4.23,4.76,6.63h0V193h0c0,2.4-1.59,4.8-4.76,6.63-6.34,3.66-16.63,3.66-23,0-3.17-1.83-4.76-4.23-4.76-6.63h0Z" style="fill:#BA68C8"></path><path d="M371.2,178.8c0-2.4,1.59-4.8,4.76-6.63,6.34-3.66,16.63-3.66,23,0,3.17,1.83,4.76,4.23,4.76,6.63h0V193h0c0,2.4-1.59,4.8-4.76,6.63-6.34,3.66-16.63,3.66-23,0-3.17-1.83-4.76-4.23-4.76-6.63h0Z" style="opacity:0.2"></path><path d="M377.45,171.42v29a15.94,15.94,0,0,1-1.49-.75,12.29,12.29,0,0,1-2.58-2V174.13a12.29,12.29,0,0,1,2.58-2A15.94,15.94,0,0,1,377.45,171.42Z" style="fill:#fff;opacity:0.15"></path><path d="M381.7,201.77a21.55,21.55,0,0,1-2.33-.64V170.68a21.55,21.55,0,0,1,2.33-.64Z" style="fill:#fff;opacity:0.15"></path><path d="M371.48,177.07a11.83,11.83,0,0,1,3.78-3.28c6.26-3.62,16.14-3.86,22.9-.75v-1.27c.26.13.52.26.77.4,3.17,1.83,4.76,4.23,4.76,6.63v4.95h0V193c0,2.4-1.59,4.8-4.76,6.63-6.34,3.66-16.63,3.66-23,0a12.14,12.14,0,0,1-2.9-2.27c3,2.82,10.54,4.38,16.13,3.28s9-4.67,9-7.2V188.6c-6.76,3.12-16.64,2.87-22.9-.74a11.2,11.2,0,0,1-4.06-3.75V178.8A5.74,5.74,0,0,1,371.48,177.07Z" style="fill:#BA68C8;opacity:0.2"></path><path d="M400.94,194.17V173.59a7,7,0,0,1,2.75,5.21V193c0,2.4-1.59,4.8-4.76,6.63a20.38,20.38,0,0,1-6.17,2.22C398.86,200.21,400.94,196,400.94,194.17Z" style="opacity:0.15"></path><path d="M398,198.9c-5.82,2.93-15.27,2.93-21.1,0s-5.82-7.68,0-10.61,15.28-2.92,21.1,0S403.82,196,398,198.9Z" style="fill:#BA68C8;opacity:0.30000000000000004"></path><path d="M371.2,176.45c0-2.4,1.59-4.8,4.76-6.63,6.34-3.66,16.63-3.66,23,0,3.17,1.83,4.76,4.23,4.76,6.63h0v4h0c0,2.4-1.59,4.8-4.76,6.63-6.34,3.67-16.63,3.67-23,0-3.17-1.83-4.76-4.23-4.76-6.63h0v-4Z" style="fill:#e0e0e0"></path><g style="clip-path:url(#freepik--clip-path--inject-65)"><g style="opacity:0.2"><rect x="370.81" y="175.78" width="0.78" height="8"></rect><rect x="372.61" y="178.81" width="0.78" height="8.06"></rect><rect x="375.32" y="180.89" width="0.78" height="8.12"></rect><rect x="378.41" y="182.18" width="0.78" height="8.18"></rect><rect x="381.81" y="183.05" width="0.78" height="8.24"></rect><rect x="385.41" y="183.48" width="0.78" height="8.3"></rect><rect x="389.06" y="183.47" width="0.78" height="8.36"></rect><rect x="392.63" y="182.99" width="0.78" height="8.43"></rect><rect x="395.97" y="182.03" width="0.78" height="8.49"></rect><polygon points="399 189.09 399.78 187.77 399.78 180.54 399 180.54 399 189.09"></polygon><polygon points="401.4 187.07 402.18 185.76 402.18 178.47 401.4 178.47 401.4 187.07"></polygon><rect x="403.3" y="175.12" width="0.78" height="8.67"></rect></g><path d="M383.56,189.55c8,0,12.28-2.57,13.56-4.7,1-1.62,1.15-1.41,1.15-4.37,0,0,.91-6.76.73-6.78s1.93-.45,3.49-.78a6.08,6.08,0,0,1,1.2,3.53h0v4h0c0,2.4-1.59,4.8-4.76,6.63C394.76,189.49,388.89,190.3,383.56,189.55Z" style="opacity:0.1"></path></g><path d="M398.93,183.08c-6.34,3.66-16.63,3.66-23,0s-6.34-9.6,0-13.26,16.63-3.66,23,0S405.27,179.42,398.93,183.08Z" style="fill:#ebebeb"></path><path d="M395.22,192.21c-6.17,1.94-14.05,1.41-19.26-1.6-3.17-1.83-4.76-4.23-4.76-6.63V190c0,2.4,1.58,4.8,4.76,6.63,5.21,3,13.08,3.53,19.25,1.59Z" style="fill:#BA68C8"></path><path d="M395.22,192.21c-6.17,1.94-14.05,1.41-19.26-1.6-3.17-1.83-4.76-4.23-4.76-6.63V190c0,2.4,1.58,4.8,4.76,6.63,5.21,3,13.08,3.53,19.25,1.59Z" style="fill:#fff;opacity:0.6000000000000001"></path><path d="M375.09,182.52c-5.45-3.68-5.16-9.22.87-12.7a23.32,23.32,0,0,1,11.17-2.74,18.15,18.15,0,0,1,5.93,2c5.48,3.14,5.48,9.39,0,12.53C388.17,184.43,380.56,184.72,375.09,182.52Z" style="fill:#f5f5f5"></path><path d="M402.44,180.05s-5.28,5.32-15.48,5-14.29-5.85-14.83-7.58a6.36,6.36,0,0,1,1.38-5.88,6.8,6.8,0,0,0-2.31,4.82v4c0,.61-.31,2.7,3,5.42,0,0-1.93-2.2-1.93-4.31v-1.78s3.61,6,14.71,6S401.89,181,402.44,180.05Z" style="fill:#fff"></path></g><path id="freepik--Shadow--inject-65" d="M404.33,204.44c-5.08,2.93-5.08,7.69,0,10.62s13.31,2.93,18.39,0,5.08-7.69,0-10.62S409.41,201.51,404.33,204.44Z" style="fill:#BA68C8;opacity:0.2"></path><g id="freepik--jar--inject-65"><path d="M403.32,195.33c0-1.49,1-3,2.93-4.1a15.68,15.68,0,0,1,14.18,0c2,1.13,2.94,2.61,2.94,4.1h0v13h0c0,1.48-1,3-2.94,4.1a15.68,15.68,0,0,1-14.18,0c-1.95-1.13-2.93-2.62-2.93-4.1h0Z" style="fill:#BA68C8"></path><path d="M419.86,212a16.31,16.31,0,0,1-13,0c-3.6-1.81-3.6-4.74,0-6.55a16.4,16.4,0,0,1,13,0C423.45,207.22,423.45,210.15,419.86,212Z" style="fill:#BA68C8;opacity:0.30000000000000004"></path></g><path d="M420.43,199.42a15.68,15.68,0,0,1-14.18,0c-3.91-2.26-3.91-5.93,0-8.19a15.68,15.68,0,0,1,14.18,0C424.35,193.49,424.35,197.16,420.43,199.42Z" style="fill:#BA68C8"></path><path d="M420.43,199.42a15.68,15.68,0,0,1-14.18,0c-3.91-2.26-3.91-5.93,0-8.19a15.68,15.68,0,0,1,14.18,0C424.35,193.49,424.35,197.16,420.43,199.42Z" style="fill:#fff;opacity:0.2"></path><path d="M419.57,198.92a13.75,13.75,0,0,1-12.46,0c-3.44-2-3.44-5.21,0-7.19a13.75,13.75,0,0,1,12.46,0C423,193.71,423,196.94,419.57,198.92Z" style="opacity:0.2"></path><path d="M415.87,203.19h0a.26.26,0,0,1-.23-.29l1.51-14.81a.25.25,0,0,1,.29-.23.27.27,0,0,1,.24.29L416.13,203A.26.26,0,0,1,415.87,203.19Z" style="fill:#455a64"></path><path d="M418,181.78a2,2,0,0,1,1.74,2.58c-.27,1-1.8,2.43-2,3.85,0,.25-.79.17-.76-.08.08-1.43-1.13-3.16-1.2-4.18A2,2,0,0,1,418,181.78Z" style="fill:#f0f0f0"></path><path d="M419.84,183.74a2.47,2.47,0,0,0-1.37,2.8,11.41,11.41,0,0,0,1.3-2.18A1.88,1.88,0,0,0,419.84,183.74Z" style="fill:#e0e0e0"></path><path d="M415.22,209.3a2,2,0,0,1-1.74-2.58c.27-1,1.8-2.43,2-3.85,0-.25.79-.17.76.08-.08,1.43,1.13,3.16,1.2,4.18A2,2,0,0,1,415.22,209.3Z" style="fill:#fafafa"></path><path d="M417.45,207.13c-.07-1-1.28-2.75-1.2-4.18,0-.13-.19-.21-.39-.23.19.06,0,1.75.15,2.21a17.86,17.86,0,0,1,.72,2.15,6.67,6.67,0,0,0-.62,1.14,9.72,9.72,0,0,0-.86-1.55,6.62,6.62,0,0,1-.78-1.66,7.2,7.2,0,0,0-1,1.71,2,2,0,0,0,.45,1.93h0a2.14,2.14,0,0,0,.32.28l0,0a2.31,2.31,0,0,0,.35.18l.08,0a2.61,2.61,0,0,0,.5.11,2.08,2.08,0,0,0,.5,0h0a1.69,1.69,0,0,0,.44-.12h0A2,2,0,0,0,417.45,207.13Z" style="fill:#e0e0e0"></path><path d="M413.42,204.63a.26.26,0,0,1-.26-.25l-1.09-14.84a.28.28,0,0,1,.25-.29c.17,0,.26.1.28.25l1.08,14.84a.28.28,0,0,1-.24.29Z" style="fill:#455a64"></path><path d="M411.87,183.16a2,2,0,0,1,2.16,2.23c-.1,1-1.35,2.72-1.31,4.15,0,.25-.75.3-.77.05-.16-1.42-1.65-2.92-1.9-3.91A2,2,0,0,1,411.87,183.16Z" style="fill:#f0f0f0"></path><path d="M411.74,187.92c-.36-.88-.13-1.11-.35-2a1.6,1.6,0,0,0-1.31-1.36,2.08,2.08,0,0,0,0,1.08c.25,1,1.74,2.49,1.9,3.91,0,.1.14.15.29.16A6.37,6.37,0,0,0,411.74,187.92Z" style="fill:#e0e0e0"></path><path d="M413.88,210.75a2,2,0,0,1-2.16-2.24c.1-1,1.35-2.71,1.31-4.14,0-.25.75-.31.77-.05.17,1.42,1.65,2.92,1.9,3.9A2,2,0,0,1,413.88,210.75Z" style="fill:#fafafa"></path><path d="M415.76,208.62a7.59,7.59,0,0,0-1.8-1.47,5,5,0,0,1-1.18-1.44,19.62,19.62,0,0,0-1.06,2.8,2,2,0,1,0,4,.11Z" style="fill:#e0e0e0"></path><path d="M410.53,206.33a.25.25,0,0,1-.26-.24l-1.08-14.85a.25.25,0,0,1,.24-.28.25.25,0,0,1,.28.24l1.08,14.85a.26.26,0,0,1-.24.28Z" style="fill:#455a64"></path><path d="M409,184.86a2,2,0,0,1,2.17,2.24c-.11,1-1.36,2.71-1.32,4.14,0,.25-.75.31-.76.06-.17-1.42-1.66-2.92-1.91-3.91A2,2,0,0,1,409,184.86Z" style="fill:#f0f0f0"></path><path d="M409.54,191.45a2.93,2.93,0,0,1-.31-1.42,6.18,6.18,0,0,0-1.31-2.47,2,2,0,0,1,.1-2.38,2.05,2.05,0,0,0-.86,2.21c.25,1,1.74,2.49,1.91,3.91C409.08,191.44,409.33,191.48,409.54,191.45Z" style="fill:#e0e0e0"></path><path d="M411,212.46a2,2,0,0,1-2.17-2.24c.1-1,1.36-2.71,1.32-4.14,0-.25.74-.31.76-.06.17,1.42,1.65,2.92,1.9,3.91A2,2,0,0,1,411,212.46Z" style="fill:#fafafa"></path><path d="M411.49,207.57a18.44,18.44,0,0,0-.43,2.8c.05.91.3,1.25-.14,1.57s-1.6-.05-2-.89a2,2,0,0,0,2.08,1.41,2,2,0,0,0,1.81-2.53A13.52,13.52,0,0,0,411.49,207.57Z" style="fill:#e0e0e0"></path><path d="M412,206.53a.28.28,0,0,1-.24-.15l-6.31-13.48a.26.26,0,0,1,.13-.35.25.25,0,0,1,.34.13l6.32,13.48a.27.27,0,0,1-.13.35Z" style="fill:#455a64"></path><path d="M403,187a2,2,0,0,1,2.82,1.32c.27,1-.3,3,.25,4.34.11.23-.59.55-.69.32-.67-1.26-2.59-2.13-3.17-3A2,2,0,0,1,403,187Z" style="fill:#f0f0f0"></path><path d="M405.92,192.9c-.09.09-.31,0-.63-.71s-1.78-1.72-2.31-2.25-.83-2.21-.21-2.82a2,2,0,0,0-.61,2.9c.58.84,2.5,1.71,3.17,3C405.4,193.15,405.73,193.05,405.92,192.9Z" style="fill:#e0e0e0"></path><path d="M414.69,212.07a2,2,0,0,1-2.82-1.32c-.27-1,.3-3-.25-4.34-.11-.22.58-.55.69-.32.67,1.26,2.59,2.13,3.17,3A2,2,0,0,1,414.69,212.07Z" style="fill:#fafafa"></path><path d="M418.8,205.31h0a.26.26,0,0,1-.24-.29l1.52-14.8a.24.24,0,0,1,.28-.24.27.27,0,0,1,.24.29l-1.52,14.81A.26.26,0,0,1,418.8,205.31Z" style="fill:#455a64"></path><path d="M421,183.9a2,2,0,0,1,1.75,2.58c-.28,1-1.81,2.43-2,3.85,0,.25-.79.17-.76-.08.08-1.43-1.12-3.16-1.2-4.18A2,2,0,0,1,421,183.9Z" style="fill:#f0f0f0"></path><path d="M421.41,184a2.24,2.24,0,0,1,.74,2.21,11.52,11.52,0,0,1-1.39,2.48,6.6,6.6,0,0,0-.37,1.8c.16,0,.29,0,.3-.15.21-1.42,1.74-2.87,2-3.85A2,2,0,0,0,421.41,184Z" style="fill:#e0e0e0"></path><path d="M418.15,211.42a2,2,0,0,1-1.74-2.58c.28-1,1.8-2.43,2-3.85,0-.25.79-.17.77.08-.09,1.43,1.12,3.16,1.19,4.18A2,2,0,0,1,418.15,211.42Z" style="fill:#fafafa"></path><path d="M419.19,205.07c0-.09-.1-.16-.23-.2.12.19-.27,1.49.1,2.25s.94,2.89-.07,3.57a1.93,1.93,0,0,1-2.4-.29,2,2,0,0,0,1.56,1,2,2,0,0,0,2.23-2.17C420.31,208.23,419.1,206.5,419.19,205.07Z" style="fill:#e0e0e0"></path><path d="M422.15,195.27c0,1.32-.83,2.64-2.58,3.65a13.73,13.73,0,0,1-12.45,0c-1.75-1-2.61-2.33-2.58-3.65h-1.21l0,0v13c0,1.48,1,3,2.95,4.1a15.72,15.72,0,0,0,14.17,0c2-1.13,2.94-2.62,2.94-4.1v-13Z" style="fill:#BA68C8;opacity:0.30000000000000004"></path><path d="M406.25,199.42a6.58,6.58,0,0,0,.92.46v13l-.44-.21c-.17-.07-.32-.17-.48-.25s-.3-.18-.45-.29l-.42-.29-.38-.32-.34-.31v-13A7.2,7.2,0,0,0,406.25,199.42Z" style="fill:#fff;opacity:0.15"></path><path d="M408.36,200.34a10.86,10.86,0,0,0,1.44.39v13l-.61-.14a6.71,6.71,0,0,1-.83-.25Z" style="fill:#fff;opacity:0.15"></path><path d="M423.37,195.32v13c0,1.48-1,3-2.93,4.1a11.58,11.58,0,0,1-1.06.52c-.3.13-.6.24-.92.35s-.53.18-.81.26-.68.17-1,.24a17,17,0,0,1-6.82-.07h0l-.61-.14a6.71,6.71,0,0,1-.83-.25,8.4,8.4,0,0,1-1.19-.46l-.44-.21c-.17-.07-.32-.17-.48-.25s-.3-.18-.45-.29l-.42-.29-.38-.32-.34-.31a1.21,1.21,0,0,1-.19-.2l.19.17a8,8,0,0,0,2.51,1.3,12,12,0,0,0,1.19.34,13.57,13.57,0,0,0,1.44.28,14.34,14.34,0,0,0,4.63-.06c3.44-.68,5.53-2.89,5.53-4.45v-8.93c.16-.07.32-.16.48-.24a7.43,7.43,0,0,0,1.23-.87A4.31,4.31,0,0,0,423.37,195.32Z" style="fill:#BA68C8;opacity:0.2"></path><path d="M423.37,195.32v13c0,1.48-1,3-2.93,4.1a11.58,11.58,0,0,1-1.06.52c-.3.13-.6.24-.92.35s-.53.18-.81.26-.68.17-1,.24c3.77-1,5.05-3.6,5.05-4.75V198.55A4.31,4.31,0,0,0,423.37,195.32Z" style="opacity:0.15"></path><path id="freepik--shadow--inject-65" d="M428.56,222.16c-3.1,1.78-3.1,4.69,0,6.47a12.39,12.39,0,0,0,11.22,0c3.09-1.78,3.09-4.69,0-6.47A12.39,12.39,0,0,0,428.56,222.16Z" style="opacity:0.2"></path><g id="freepik--Tube--inject-65"><path d="M427.35,224.47h0v-6.61H441v6.61h0a3.44,3.44,0,0,1-2,3.1,10.64,10.64,0,0,1-9.67,0A3.48,3.48,0,0,1,427.35,224.47Z" style="fill:#BA68C8"></path><path d="M441,224.47a3.44,3.44,0,0,1-2,3.1,10.64,10.64,0,0,1-9.67,0,3.48,3.48,0,0,1-2-3.1" style="fill:#BA68C8"></path><path d="M429.33,225.44a10.7,10.7,0,0,0,9.67,0,3.44,3.44,0,0,0,2-3.11v.54a3.44,3.44,0,0,1-2,3.1,10.64,10.64,0,0,1-9.67,0,3.48,3.48,0,0,1-2-3.1v-.54A3.48,3.48,0,0,0,429.33,225.44Z" style="opacity:0.15"></path><path d="M442.84,175.24a2,2,0,0,0-.92-1.6l-15.51-9c-.51-.29-.92-.05-.92.54v3.94l17.35,10Z" style="fill:#37474f"></path><path d="M425,217.86l.53-48.7,17.35,10,.53,38.68h0c0,1.36-.9,2.72-2.7,3.75a14.34,14.34,0,0,1-13,0C425.86,220.58,425,219.22,425,217.86Z" style="fill:#455a64"></path><path d="M429.4,192.94c-1.49-.86-2.69-.17-2.69,1.55a5.91,5.91,0,0,0,2.69,4.65c1.48.86,2.68.17,2.68-1.55A5.93,5.93,0,0,0,429.4,192.94Z" style="fill:#BA68C8"></path><path d="M434.59,203.59c.59,0,1.07.27,1.07.68s-.48.79-1.07.8a13.32,13.32,0,0,1-6.75-1.52c-1.77-1-2.68-2.35-2.68-3.7v-1.49c0,1.34.9,2.69,2.67,3.71A13.32,13.32,0,0,0,434.59,203.59Z" style="fill:#BA68C8"></path></g><path d="M362.77,180.62l73,42.15a11.88,11.88,0,0,0,10.71,0l12.31-7.12v3.48l-12.31,7.12a11.88,11.88,0,0,1-10.71,0l-73-42.15a3.73,3.73,0,0,1-2.2-3.07c0-.47,0-3.44,0-3.44a3.11,3.11,0,0,0,.63,1.68A5.19,5.19,0,0,0,362.77,180.62Z" style="fill:#f5f5f5"></path><path d="M446.49,167.68l12.31-7.12a3.74,3.74,0,0,0,2.21-3.08v-4.63a3.72,3.72,0,0,0-2.21-3.09l-73-42.15a11.82,11.82,0,0,0-10.71,0l-12.32,7.12a3.76,3.76,0,0,0-2.21,3.08c0,.81,0,3.83,0,4.63a3.73,3.73,0,0,0,2.2,3.09l73,42.15A11.88,11.88,0,0,0,446.49,167.68Z" style="fill:#BA68C8"></path><path d="M385.8,107.61a11.82,11.82,0,0,0-10.71,0l-12.32,7.12a3.76,3.76,0,0,0-2.21,3.08c0,.81,0,3.83,0,4.63a3.73,3.73,0,0,0,2.2,3.09l73,42.15a10.18,10.18,0,0,0,3.91,1.2V138.72Z" style="fill:#fff;opacity:0.6000000000000001"></path><path d="M446.49,167.68l12.31-7.12a3.74,3.74,0,0,0,2.21-3.08v-4.63a3.72,3.72,0,0,0-2.21-3.09l-19.11-11v30.16A11.67,11.67,0,0,0,446.49,167.68Z" style="fill:#fff;opacity:0.4"></path><path d="M458.8,155.94l-12.31,7.12a11.88,11.88,0,0,1-10.71,0l-73-42.15c-2.95-1.71-2.95-4.48,0-6.18l12.32-7.12a11.82,11.82,0,0,1,10.71,0l73,42.15C461.76,151.47,461.76,154.23,458.8,155.94Z" style="fill:#BA68C8"></path><path d="M458.8,155.94l-12.31,7.12a11.88,11.88,0,0,1-10.71,0l-73-42.15c-2.95-1.71-2.95-4.48,0-6.18l12.32-7.12a11.82,11.82,0,0,1,10.71,0l73,42.15C461.76,151.47,461.76,154.23,458.8,155.94Z" style="fill:#fff;opacity:0.7000000000000001"></path><path d="M397.87,127.17c-6,3.46-15.72,3.46-21.72,0s-6-9.07,0-12.54,15.72-3.46,21.72,0S403.86,123.71,397.87,127.17Z" style="fill:#BA68C8;opacity:0.2"></path><path d="M400.91,119.71c0-9.37-3-20.06-6.85-24.81l-.24-.3-.09-.11h0a8.93,8.93,0,0,0-13.42,0h0l-.09.11-.24.3c-3.89,4.75-6.85,15.44-6.85,24.82h0c0,2,1.36,4.1,4.07,5.67,5.43,3.13,14.23,3.13,19.66,0C399.56,123.82,400.91,121.77,400.91,119.71Z" style="fill:#BA68C8"></path><path d="M388.67,118.16V104.5c-4.15,0-9.44-.42-11.69-4.4a51,51,0,0,0-3.45,13.27C377.72,119.76,388.67,118.16,388.67,118.16Z" style="fill:#f0f0f0"></path><g id="freepik--Soap--inject-65"><path d="M392,89.9v3.67a2.48,2.48,0,0,1-1.47,2,7.82,7.82,0,0,1-7.08,0,2.46,2.46,0,0,1-1.46-2V89.9Z" style="fill:#37474f"></path><path d="M390.55,92a7.82,7.82,0,0,1-7.08,0c-2-1.13-2-3,0-4.09a7.82,7.82,0,0,1,7.08,0C392.51,89,392.51,90.82,390.55,92Z" style="fill:#455a64"></path><path d="M388.5,83v7a.73.73,0,0,1-.44.6,2.29,2.29,0,0,1-2.1,0,.73.73,0,0,1-.44-.6V83Z" style="fill:#37474f"></path><path d="M388.5,87.39l-.24,0a23.57,23.57,0,0,0-2.74.34V83h3Z" style="fill:#263238"></path><path d="M378,86.74l1-.73a6.17,6.17,0,0,0,2.56-3.81,2.85,2.85,0,0,1,2-1.85,8.8,8.8,0,0,1,5.93.19c3.11,1.24,3.7,3.58,1.51,4.85a6.17,6.17,0,0,1-2.7.73,18.18,18.18,0,0,0-6.52,1.48l-1.27.59A2.51,2.51,0,0,1,378,86.74Z" style="fill:#455a64"></path></g><path d="M399.9,109.69c.67,4.5-.95,12-7.88,14.57a19.87,19.87,0,0,1-17.93-1.58,9.49,9.49,0,0,0,3.09,2.71c5.43,3.13,14.23,3.13,19.66,0,2.71-1.57,4.07-3.62,4.07-5.68A53.38,53.38,0,0,0,399.9,109.69Z" style="opacity:0.2"></path><path d="M418.88,141.91a16.48,16.48,0,0,1-14.92,0c-4.12-2.38-4.12-6.24,0-8.61a16.48,16.48,0,0,1,14.92,0C423,135.67,423,139.53,418.88,141.91Z" style="fill:#BA68C8;opacity:0.2"></path><path d="M420.19,100.46v35.92c0,1.3-.86,2.59-2.57,3.58a13.71,13.71,0,0,1-12.41,0c-1.71-1-2.57-2.28-2.57-3.58V100.46Z" style="fill:#BA68C8"></path><path d="M420.19,100.46v35.92c0,1.3-.86,2.59-2.57,3.58a13.71,13.71,0,0,1-12.41,0c-1.71-1-2.57-2.28-2.57-3.58V100.46Z" style="opacity:0.30000000000000004"></path><path d="M413.53,141.28a11.51,11.51,0,0,0,4.09-1.32c1.71-1,2.57-2.28,2.57-3.58V100.46h-6.66Z" style="opacity:0.1"></path><path d="M417.62,104.05a13.77,13.77,0,0,1-12.41,0c-3.42-2-3.42-5.19,0-7.17a13.71,13.71,0,0,1,12.41,0C421.05,98.86,421.05,102.07,417.62,104.05Z" style="fill:#BA68C8"></path><path d="M417.62,104.05a13.77,13.77,0,0,1-12.41,0c-3.42-2-3.42-5.19,0-7.17a13.71,13.71,0,0,1,12.41,0C421.05,98.86,421.05,102.07,417.62,104.05Z" style="opacity:0.1"></path><path d="M417.78,93.5v6.25a3.14,3.14,0,0,1-1.86,2.6,9.91,9.91,0,0,1-9,0,3.14,3.14,0,0,1-1.87-2.6V93.5Z" style="fill:#37474f"></path><path d="M413,103.31a8.44,8.44,0,0,0,3-1,3.14,3.14,0,0,0,1.86-2.6V93.5H413Z" style="fill:#263238"></path><path d="M415.92,96.09a9.91,9.91,0,0,1-9,0c-2.49-1.43-2.49-3.76,0-5.19a9.91,9.91,0,0,1,9,0C418.4,92.33,418.4,94.66,415.92,96.09Z" style="fill:#455a64"></path><path d="M416.29,90.11v2.73a2.43,2.43,0,0,1-1.43,2,7.61,7.61,0,0,1-6.89,0,2.42,2.42,0,0,1-1.42-2V90.11Z" style="fill:#ebebeb"></path><path d="M412.59,95.56a6.31,6.31,0,0,0,2.27-.73,2.43,2.43,0,0,0,1.43-2V90.11h-3.7Z" style="fill:#e0e0e0"></path><path d="M414.86,92.1a7.61,7.61,0,0,1-6.89,0c-1.9-1.1-1.9-2.88,0-4a7.61,7.61,0,0,1,6.89,0C416.77,89.22,416.77,91,414.86,92.1Z" style="fill:#fafafa"></path><path d="M414.7,83.48v6.37a1.64,1.64,0,0,1-1,1.35,5.15,5.15,0,0,1-4.65,0,1.64,1.64,0,0,1-1-1.35V83.48Z" style="fill:#ebebeb"></path><path d="M412.94,91.52a3.82,3.82,0,0,0,.8-.32,1.64,1.64,0,0,0,1-1.35V83.48h-1.76Z" style="fill:#e0e0e0"></path><path d="M413.74,84.82a5.09,5.09,0,0,1-4.65,0c-1.28-.74-1.28-1.94,0-2.68a5.15,5.15,0,0,1,4.65,0C415,82.88,415,84.08,413.74,84.82Z" style="fill:#fafafa"></path><path d="M409.81,87.22a1.55,1.55,0,0,0-.72-1.23c-.39-.23-.71,0-.71.41a1.59,1.59,0,0,0,.71,1.23C409.49,87.86,409.81,87.67,409.81,87.22Z" style="fill:#455a64"></path><path d="M417.78,82.78a3.17,3.17,0,0,0-1.86-2.6,10,10,0,0,0-9,0,3.16,3.16,0,0,0-1.87,2.6V93.49a3.15,3.15,0,0,0,1.87,2.6,9.91,9.91,0,0,0,9,0,3.14,3.14,0,0,0,1.86-2.59h0V82.78Z" style="fill:#BA68C8;opacity:0.30000000000000004"></path><path d="M415.92,85.38a10,10,0,0,1-9,0c-2.49-1.44-2.49-3.76,0-5.2a10,10,0,0,1,9,0C418.4,81.62,418.4,83.94,415.92,85.38Z" style="fill:#fff;opacity:0.30000000000000004"></path><path d="M442.24,154.66c-4.71,2.72-12.34,2.72-17.05,0s-4.7-7.12,0-9.84,12.34-2.71,17.05,0S446.94,152,442.24,154.66Z" style="fill:#BA68C8;opacity:0.2"></path><path d="M444.21,148.38V106.71a10.5,10.5,0,0,0-21,0v41.67c0,1.55,1,3.1,3.08,4.29a16.44,16.44,0,0,0,14.84,0C443.18,151.48,444.21,149.93,444.21,148.38Z" style="fill:#BA68C8"></path><path d="M444.21,148.38V106.71a10.5,10.5,0,0,0-21,0v41.67c0,1.55,1,3.1,3.08,4.29a16.44,16.44,0,0,0,14.84,0C443.18,151.48,444.21,149.93,444.21,148.38Z" style="fill:#fff;opacity:0.8"></path><path d="M440.24,118v28.61c0,5.32-9.43,7.83-15.5,4.9a8.22,8.22,0,0,0,1.56,1.16,16.44,16.44,0,0,0,14.84,0c2-1.19,3.07-2.74,3.07-4.29V106.71a10.49,10.49,0,0,0-10.49-10.49v3C439.29,103.22,440.24,105,440.24,118Z" style="fill:#BA68C8;opacity:0.2"></path><path d="M438.72,88.4V98.52a2.46,2.46,0,0,1-1.46,2,7.84,7.84,0,0,1-7.09,0,2.48,2.48,0,0,1-1.46-2V88.4Z" style="fill:#37474f"></path><path d="M437.26,90.45a7.84,7.84,0,0,1-7.09,0c-1.95-1.13-1.95-3,0-4.09a7.84,7.84,0,0,1,7.09,0C439.21,87.49,439.21,89.32,437.26,90.45Z" style="fill:#455a64"></path><path d="M432.19,89.86a3.65,3.65,0,0,0-2.92-.15,3.6,3.6,0,0,0,.9.74,6.72,6.72,0,0,0,2.59.79C433,90.77,432.84,90.23,432.19,89.86Z" style="fill:#263238"></path><path d="M441.14,118a16.44,16.44,0,0,1-14.84,0c-2.05-1.19-3.08-2.74-3.08-4.29v19.93c0,1.55,1,3.1,3.08,4.28a16.38,16.38,0,0,0,14.84,0c2-1.18,3.07-2.73,3.07-4.28V113.69C444.21,115.24,443.18,116.79,441.14,118Z" style="fill:#fafafa"></path><path d="M441.14,118c-.28.16-.6.28-.9.42v19.92c.3-.14.62-.26.9-.42,2-1.18,3.07-2.73,3.07-4.28V113.69C444.21,115.24,443.18,116.79,441.14,118Z" style="fill:#ebebeb"></path><path d="M362.77,102.71l73,42.15a11.82,11.82,0,0,0,10.71,0l12.31-7.12v3.49l-12.31,7.11a11.82,11.82,0,0,1-10.71,0l-73-42.15a3.71,3.71,0,0,1-2.2-3.06c0-.47,0-3.44,0-3.44a3.08,3.08,0,0,0,.63,1.67A5.19,5.19,0,0,0,362.77,102.71Z" style="fill:#f5f5f5"></path><path d="M362.77,96.53l12.32-7.12V92.9L362.77,100a5.19,5.19,0,0,0-1.57,1.35C360,99.76,360.51,97.84,362.77,96.53Z" style="fill:#e0e0e0"></path><path d="M408.12,31.37a1.87,1.87,0,0,1,.35-.17.8.8,0,0,1,.27-.12l.37-.13a4.1,4.1,0,0,1,1.56-.12,5.41,5.41,0,0,1,2.07.66c4.74,2.49,8.61,10.57,8.61,17.8v6.39c0,3.49,1.67,7.4,3.92,9.13L447,81.75c4.49,3.53,7.87,11.38,7.87,18.39v32l4.45-2.57v-32c0-7-3.38-14.86-7.87-18.38L429.72,62.3c-2.25-1.75-3.92-5.67-3.92-9.13V46.76c0-7.23-3.87-15.29-8.61-17.81a4.49,4.49,0,0,0-4.58-.14Z" style="fill:#f5f5f5"></path><path d="M410.67,30.83a5.41,5.41,0,0,1,2.07.66c4.74,2.49,8.61,10.57,8.61,17.8v6.39c0,3.49,1.67,7.4,3.92,9.13L447,81.75c4.49,3.53,7.87,11.38,7.87,18.39v32L452.8,131V100.14c0-6.31-3.11-13.67-7.09-16.76L424,66.44c-2.72-2.12-4.7-6.63-4.7-10.76V49.29c0-6.38-3.5-13.86-7.5-16a4.24,4.24,0,0,0-1.16-.42Z" style="fill:#ebebeb"></path><path d="M451.84,118.09l6-3.48a3.76,3.76,0,0,1,3.78-.37l4,2.31a3.72,3.72,0,0,1,1.58,3.46V257.67a11.82,11.82,0,0,1-5.36,9.27l-6,3.49a3.76,3.76,0,0,1-3.78.37c-.69-.41-3.31-1.92-4-2.32a3.74,3.74,0,0,1-1.56-3.45V127.36A11.83,11.83,0,0,1,451.84,118.09Z" style="fill:#BA68C8"></path><path d="M467.23,257.67a11.82,11.82,0,0,1-5.36,9.27l-6,3.49a3.76,3.76,0,0,1-3.78.37c-.69-.41-3.31-1.92-4-2.32a3.74,3.74,0,0,1-1.56-3.45V127.36a10.08,10.08,0,0,1,.91-4l19.83,11.44Z" style="fill:#fff;opacity:0.6000000000000001"></path><path d="M451.84,118.09l6-3.48a3.76,3.76,0,0,1,3.78-.37l4,2.31a3.72,3.72,0,0,1,1.58,3.46v14.81L447.4,123.38A11.54,11.54,0,0,1,451.84,118.09Z" style="fill:#fff;opacity:0.7000000000000001"></path><path d="M461.87,116.92l-6,3.48a11.83,11.83,0,0,0-5.35,9.27V267.34c0,3.41,2.39,4.79,5.35,3.09l6-3.49a11.82,11.82,0,0,0,5.36-9.27V120C467.23,116.59,464.83,115.21,461.87,116.92Z" style="fill:#BA68C8"></path><path d="M461.87,116.92l-6,3.48a11.83,11.83,0,0,0-5.35,9.27V267.34c0,3.41,2.39,4.79,5.35,3.09l6-3.49a11.82,11.82,0,0,0,5.36-9.27V120C467.23,116.59,464.83,115.21,461.87,116.92Z" style="fill:#fff;opacity:0.4"></path><path d="M379.27,235.51a6.16,6.16,0,0,0,3-.92,13.78,13.78,0,0,0,6.32-11v-4.49a.74.74,0,1,0-1.47,0v4.49a12.35,12.35,0,0,1-5.59,9.68,2.92,2.92,0,0,1-4.86-2.8.73.73,0,0,0-1.46,0c0,2.11.75,3.71,2.11,4.49A3.72,3.72,0,0,0,379.27,235.51Z" style="fill:#455a64"></path><path d="M373.32,228.68A2.66,2.66,0,1,0,376,226,2.66,2.66,0,0,0,373.32,228.68Z" style="fill:#37474f"></path><path d="M402.58,271.12a.71.71,0,0,0,.37-.1l20.31-11.7a13.78,13.78,0,0,0,6.32-10.95v-4.49a.74.74,0,0,0-1.47,0v4.49a12.37,12.37,0,0,1-5.59,9.69l-19.94,11.48-32-18.49L389.77,240a13.76,13.76,0,0,0,6.33-11v-4.49a.74.74,0,1,0-1.47,0V229a12.38,12.38,0,0,1-5.59,9.68l-20.31,11.7a.72.72,0,0,0-.37.63.74.74,0,0,0,.37.64L402.21,271A.71.71,0,0,0,402.58,271.12Z" style="fill:#455a64"></path><path d="M422.89,259.42a.75.75,0,0,0,.64-.36.73.73,0,0,0-.27-1l-33.49-19.34A.73.73,0,0,0,389,240l33.48,19.33A.74.74,0,0,0,422.89,259.42Z" style="fill:#455a64"></path><path d="M402.58,271.12a.74.74,0,0,0,.37-.1l20.31-11.7a.73.73,0,0,0,.27-1,.75.75,0,0,0-1-.26l-20.31,11.69a.73.73,0,0,0-.27,1A.74.74,0,0,0,402.58,271.12Z" style="fill:#455a64"></path><path d="M397,267.89a.81.81,0,0,0,.37-.09l20.31-11.7a.73.73,0,1,0-.73-1.27l-20.31,11.7a.73.73,0,0,0-.27,1A.73.73,0,0,0,397,267.89Z" style="fill:#455a64"></path><path d="M391.43,264.67a.68.68,0,0,0,.36-.1l20.31-11.69a.73.73,0,0,0,.27-1,.74.74,0,0,0-1-.26L391.06,263.3a.73.73,0,0,0,.37,1.37Z" style="fill:#455a64"></path><path d="M385.85,261.45a.86.86,0,0,0,.37-.1l20.31-11.7a.73.73,0,1,0-.73-1.27l-20.32,11.7a.73.73,0,0,0-.27,1A.76.76,0,0,0,385.85,261.45Z" style="fill:#455a64"></path><path d="M380.27,258.22a.69.69,0,0,0,.37-.1L401,246.43a.73.73,0,0,0,.27-1,.73.73,0,0,0-1-.27l-20.31,11.69a.73.73,0,0,0-.27,1A.73.73,0,0,0,380.27,258.22Z" style="fill:#455a64"></path><path d="M374.7,255a.78.78,0,0,0,.36-.1l20.31-11.7a.73.73,0,0,0,.27-1,.73.73,0,0,0-1-.27l-20.31,11.7a.73.73,0,0,0-.27,1A.75.75,0,0,0,374.7,255Z" style="fill:#455a64"></path><path d="M369.12,251.77a.71.71,0,0,0,.37-.1L389.8,240a.73.73,0,1,0-.73-1.27L368.75,250.4a.72.72,0,0,0-.26,1A.71.71,0,0,0,369.12,251.77Z" style="fill:#455a64"></path><g id="freepik--Sponge--inject-65"><path d="M429.5,264.51a6.1,6.1,0,0,0,3-.92,13.78,13.78,0,0,0,6.33-10.95v-4.49a.74.74,0,1,0-1.47,0v4.49a12.38,12.38,0,0,1-5.59,9.68,3.5,3.5,0,0,1-3.48.42c-.89-.51-1.38-1.66-1.38-3.22a.73.73,0,1,0-1.46,0c0,2.11.75,3.71,2.11,4.49A3.82,3.82,0,0,0,429.5,264.51Z" style="fill:#455a64"></path><path d="M423.55,257.68A2.66,2.66,0,1,0,426.2,255,2.65,2.65,0,0,0,423.55,257.68Z" style="fill:#37474f"></path></g><g id="freepik--soap--inject-65"><path d="M376.53,239.92a9.41,9.41,0,0,1,1.17-1.64,10.08,10.08,0,0,1,2.56-2,18,18,0,0,1,5.67-2s0,0,.08,0c5.21-1,11.25-.29,15.48,2.14l10.11,5.85,1.94,1.12a11.39,11.39,0,0,1,2.74,2.14c.23.27.43.51.62.78a11.54,11.54,0,0,1,2.27,6.91,11.79,11.79,0,0,1-2.1,6.71c-.11.13-.19.27-.29.4s-.27.33-.42.49a6.82,6.82,0,0,1-.53.56,13.25,13.25,0,0,1-2.08,1.5,18,18,0,0,1-5.77,2,26.21,26.21,0,0,1-4.88.43,19.59,19.59,0,0,1-13.47-6,15.93,15.93,0,0,0-2-1.7,9.4,9.4,0,0,0-5.3-2,7,7,0,0,1-5.6-3.29l0,0a11.63,11.63,0,0,1-.16-12.33Z" style="fill:#BA68C8"></path><path d="M413.74,255.6c-5.81,3.35-15.31,3.3-21.22-.11l-12.07-7c-5.91-3.41-6-8.9-.19-12.25s15.3-3.3,21.22.11l12.06,7C419.46,246.76,419.55,252.25,413.74,255.6Z" style="fill:#BA68C8"></path><path d="M413.74,255.6c-5.81,3.35-15.31,3.3-21.22-.11l-12.07-7c-5.91-3.41-6-8.9-.19-12.25s15.3-3.3,21.22.11l12.06,7C419.46,246.76,419.55,252.25,413.74,255.6Z" style="fill:#fff;opacity:0.2"></path><path d="M390.78,255.94c-.15,2.67,4.07,3,5.76,2.11a2.39,2.39,0,0,0,.9,2.25,3.58,3.58,0,0,0,2.84.61,2.18,2.18,0,0,0,1.6-1.11,3.54,3.54,0,0,0,1.95,1.84,2,2,0,0,0,1.65-.39,2.45,2.45,0,0,0,.87-1.48,1.59,1.59,0,0,0,1.07.76,2.69,2.69,0,0,0,1.32-.1,2.37,2.37,0,0,0,1.62-1.76,2.47,2.47,0,0,0,1.91,1,3.72,3.72,0,0,0,3.69-1.24,3.9,3.9,0,0,0,.3-3.77,2.28,2.28,0,0,0,2.26-2.26,2.49,2.49,0,0,0-3.19-2.43,3.67,3.67,0,0,0-3-2.38,3,3,0,0,0-2.5,1.11,2.53,2.53,0,0,0-.49,1.08,2.49,2.49,0,0,0-2.77-.06,2.91,2.91,0,0,0-1.28,2.51,2.79,2.79,0,0,0-2.74-.77,2.3,2.3,0,0,0-1.62,1,3.4,3.4,0,0,0-.69,2,4.5,4.5,0,0,0-1.12-1.14,3.33,3.33,0,0,0-1.49-.42,3.5,3.5,0,0,0-2.82.83,4.15,4.15,0,0,0-.8,1.34,2.21,2.21,0,0,0-2.18-.69A1.76,1.76,0,0,0,390.78,255.94ZM387,253.29a2,2,0,0,0,1.41.61,3.11,3.11,0,0,0,1.52-.34,2.18,2.18,0,0,0,.78-.59,1.46,1.46,0,0,0,.25-1.32,2.2,2.2,0,0,0-1.69-1.28,2.46,2.46,0,0,0-2.29.54A1.81,1.81,0,0,0,387,253.29Z" style="fill:#BA68C8"></path><path d="M390.78,255.94c-.15,2.67,4.07,3,5.76,2.11a2.39,2.39,0,0,0,.9,2.25,3.58,3.58,0,0,0,2.84.61,2.18,2.18,0,0,0,1.6-1.11,3.54,3.54,0,0,0,1.95,1.84,2,2,0,0,0,1.65-.39,2.45,2.45,0,0,0,.87-1.48,1.59,1.59,0,0,0,1.07.76,2.69,2.69,0,0,0,1.32-.1,2.37,2.37,0,0,0,1.62-1.76,2.47,2.47,0,0,0,1.91,1,3.72,3.72,0,0,0,3.69-1.24,3.9,3.9,0,0,0,.3-3.77,2.28,2.28,0,0,0,2.26-2.26,2.49,2.49,0,0,0-3.19-2.43,3.67,3.67,0,0,0-3-2.38,3,3,0,0,0-2.5,1.11,2.53,2.53,0,0,0-.49,1.08,2.49,2.49,0,0,0-2.77-.06,2.91,2.91,0,0,0-1.28,2.51,2.79,2.79,0,0,0-2.74-.77,2.3,2.3,0,0,0-1.62,1,3.4,3.4,0,0,0-.69,2,4.5,4.5,0,0,0-1.12-1.14,3.33,3.33,0,0,0-1.49-.42,3.5,3.5,0,0,0-2.82.83,4.15,4.15,0,0,0-.8,1.34,2.21,2.21,0,0,0-2.18-.69A1.76,1.76,0,0,0,390.78,255.94ZM387,253.29a2,2,0,0,0,1.41.61,3.11,3.11,0,0,0,1.52-.34,2.18,2.18,0,0,0,.78-.59,1.46,1.46,0,0,0,.25-1.32,2.2,2.2,0,0,0-1.69-1.28,2.46,2.46,0,0,0-2.29.54A1.81,1.81,0,0,0,387,253.29Z" style="fill:#fff;opacity:0.8"></path></g></g></g><g id="freepik--Sink--inject-65"><g id="freepik--bathroom-sink--inject-65"><polygon points="240.54 406.12 380.1 325.55 380.1 403.15 240.54 483.72 240.54 406.12" style="fill:#37474f"></polygon><polygon points="240.54 406.12 134.65 344.98 134.65 422.58 240.54 483.72 240.54 406.12" style="fill:#263238"></polygon><polygon points="240.54 440.09 380.1 359.51 380.1 325.55 240.54 406.12 134.65 344.98 134.65 378.95 240.54 440.09" style="opacity:0.15"></polygon><polygon points="111.11 351.77 306.82 238.76 424.49 306.69 228.78 419.71 111.11 351.77" style="fill:#BA68C8"></polygon><polygon points="111.11 351.77 306.82 238.76 424.49 306.69 228.78 419.71 111.11 351.77" style="fill:#fff;opacity:0.9"></polygon><polygon points="228.78 426.5 228.78 419.71 111.11 351.77 111.11 358.57 228.78 426.5" style="fill:#BA68C8"></polygon><polygon points="228.78 426.5 228.78 419.71 111.11 351.77 111.11 358.57 228.78 426.5" style="fill:#fff;opacity:0.5"></polygon><polygon points="424.49 306.69 424.49 313.49 228.78 426.5 228.78 419.71 424.49 306.69" style="fill:#BA68C8"></polygon><polygon points="424.49 306.69 424.49 313.49 228.78 426.5 228.78 419.71 424.49 306.69" style="fill:#fff;opacity:0.7000000000000001"></polygon><path d="M323.5,352.67a15.09,15.09,0,0,0-13.41-.09c18.62-13.11,17.33-32.49-3.87-44.73-22.58-13-59.18-13-81.76,0s-22.57,34.17,0,47.2,59.18,13,81.76,0c.86-.49,1.68-1,2.47-1.52-2.49,2.15-2.09,5.09,1.21,7a15,15,0,0,0,13.6,0C327.25,358.36,327.25,354.84,323.5,352.67Z" style="fill:#BA68C8;opacity:0.2"></path><path d="M292.42,340.25c2.87-2.85,11-11,28.19-23.54h-40.9a52.59,52.59,0,0,0-28.73,0H210.07c17.17,12.53,25.33,20.69,28.2,23.54a2.5,2.5,0,0,0,.23.23l.47.47h0c5.38,5,15.18,8.4,26.37,8.4s21-3.37,26.37-8.4h0l.47-.47Z" style="fill:#e0e0e0"></path><path d="M292.42,340.25c2.87-2.85,11-11,28.19-23.54h-40.9a52.59,52.59,0,0,0-28.73,0H210.07c17.17,12.53,25.33,20.69,28.2,23.54a2.5,2.5,0,0,0,.23.23l.47.47h0c5.38,5,15.18,8.4,26.37,8.4s21-3.37,26.37-8.4h0l.47-.47Z" style="opacity:0.15"></path><ellipse cx="265.34" cy="292.75" rx="69.75" ry="39.28" style="fill:#fff"></ellipse><ellipse cx="265.34" cy="291.49" rx="64.06" ry="34.89" style="fill:#ebebeb"></ellipse><path d="M265.34,326.37a110.36,110.36,0,0,0,26.51-3.13c-5.35-5.1-15.22-8.53-26.51-8.53s-21.15,3.43-26.5,8.53A110.34,110.34,0,0,0,265.34,326.37Z" style="fill:#e0e0e0"></path><polygon points="312.75 305.81 285.09 289.84 293 285.28 320.65 301.25 312.75 305.81" style="fill:#455a64"></polygon><polygon points="312.75 305.81 320.65 301.25 315.67 298.37 307.77 302.94 312.75 305.81" style="opacity:0.05"></polygon><polygon points="285.09 289.84 273.24 292.13 281.14 287.56 293 285.28 285.09 289.84" style="fill:#37474f"></polygon><polygon points="273.24 296.69 285.09 294.41 312.75 310.37 312.75 305.81 285.09 289.84 273.24 292.13 273.24 296.69" style="fill:#263238"></polygon><polygon points="307.77 307.5 312.75 310.37 312.75 305.81 307.77 302.94 307.77 307.5" style="opacity:0.1"></polygon><path d="M323.15,356V287.12H310.24V356h0a3.21,3.21,0,0,0,1.89,2.64,10.13,10.13,0,0,0,9.13,0A3.21,3.21,0,0,0,323.15,356Z" style="fill:#37474f"></path><path d="M318.64,359.5a8.12,8.12,0,0,0,2.62-.9,3.21,3.21,0,0,0,1.89-2.64V287.12h-4.51Z" style="opacity:0.1"></path><path d="M312.13,289.76a10.13,10.13,0,0,0,9.13,0c2.52-1.46,2.52-3.82,0-5.28a10.13,10.13,0,0,0-9.13,0C309.61,285.94,309.61,288.3,312.13,289.76Z" style="fill:#455a64"></path></g><g id="freepik--moisturizing-mask--inject-65"><path id="freepik--shadow--inject-65" d="M152.7,343.6c-10.37,6-10.37,15.7,0,21.69s27.19,6,37.56,0,10.38-15.7,0-21.69S163.07,337.61,152.7,343.6Z" style="fill:#BA68C8;opacity:0.2"></path><path id="freepik--shadow--inject-65" d="M198.77,373.88c-10.37,6-10.37,15.7,0,21.69s27.2,6,37.57,0,10.37-15.7,0-21.69S209.15,367.89,198.77,373.88Z" style="fill:#BA68C8;opacity:0.2"></path><g id="freepik--jar--inject-65"><path d="M192,339.54a20.39,20.39,0,0,1-3.1,2.17c-7.16,4.13-17.58,5.23-26.48,3.3a31.73,31.73,0,0,1-3.6-1,27.32,27.32,0,0,1-3-1.14,24.55,24.55,0,0,1-2.29-1.17,18.6,18.6,0,0,1-4-3,10.21,10.21,0,0,1-3.35-7.22v19.61a10,10,0,0,0,2.87,6.71h0c.09.1.18.21.28.31l.63.6c.16.16.33.3.5.45s.36.3.55.45a3.06,3.06,0,0,0,.29.21.55.55,0,0,0,.14.12l.13.1.1.06.13.1c.53.37,1.08.72,1.68,1.07.37.21.73.41,1.12.61l1.17.55a26.1,26.1,0,0,0,3,1.14,30.29,30.29,0,0,0,3.6,1,42.27,42.27,0,0,0,17,.13.32.32,0,0,0,.09,0c.84-.16,1.66-.35,2.47-.57s1.66-.48,2.45-.77c.39-.14.77-.28,1.15-.44l.07,0c.38-.15.74-.3,1.1-.47s.75-.35,1.1-.54.71-.37,1.06-.57c4.88-2.81,7.32-6.5,7.32-10.19V331.52C196.26,334.32,194.85,337.12,192,339.54Z" style="fill:#BA68C8"></path><path d="M192,339.54a20.39,20.39,0,0,1-3.1,2.17c-7.16,4.13-17.58,5.23-26.48,3.3a31.73,31.73,0,0,1-3.6-1,27.32,27.32,0,0,1-3-1.14,24.55,24.55,0,0,1-2.29-1.17,18.6,18.6,0,0,1-4-3,10.21,10.21,0,0,1-3.35-7.22v19.61a10,10,0,0,0,2.87,6.71h0c.09.1.18.21.28.31l.63.6c.16.16.33.3.5.45s.36.3.55.45a3.06,3.06,0,0,0,.29.21.55.55,0,0,0,.14.12l.13.1.1.06.13.1c.53.37,1.08.72,1.68,1.07.37.21.73.41,1.12.61l1.17.55a26.1,26.1,0,0,0,3,1.14,30.29,30.29,0,0,0,3.6,1,42.27,42.27,0,0,0,17,.13.32.32,0,0,0,.09,0c.84-.16,1.66-.35,2.47-.57s1.66-.48,2.45-.77c.39-.14.77-.28,1.15-.44l.07,0c.38-.15.74-.3,1.1-.47s.75-.35,1.1-.54.71-.37,1.06-.57c4.88-2.81,7.32-6.5,7.32-10.19V331.52C196.26,334.32,194.85,337.12,192,339.54Z" style="opacity:0.2"></path><path d="M153.62,341.71a24.55,24.55,0,0,0,2.29,1.17v19.6l-1.17-.55c-.39-.2-.75-.4-1.12-.61-.6-.35-1.15-.7-1.68-1.07l-.13-.1-.37-.28a17.26,17.26,0,0,1-1.78-1.56V338.74A18.6,18.6,0,0,0,153.62,341.71Z" style="fill:#fff;opacity:0.15"></path><path d="M162.46,345v19.6a37.31,37.31,0,0,1-3.6-1V344A31.73,31.73,0,0,0,162.46,345Z" style="fill:#fff;opacity:0.15"></path><path d="M196.26,331.52v19.61c0,3.69-2.44,7.38-7.32,10.19-.35.2-.69.4-1.06.57s-.72.37-1.1.54-.72.32-1.1.47l-.07,0c-.38.16-.76.3-1.15.44-.79.29-1.61.55-2.45.77s-1.63.41-2.47.57a.32.32,0,0,1-.09,0,42.27,42.27,0,0,1-17-.13,30.29,30.29,0,0,1-3.6-1,26.1,26.1,0,0,1-3-1.14l-1.17-.55c-.39-.2-.75-.4-1.12-.61-.6-.35-1.15-.7-1.68-1.07l-.13-.1-.1-.06-.13-.1c-.15-.11-.3-.22-.43-.33s-.37-.29-.55-.45-.34-.29-.5-.45l-.63-.6c-.1-.1-.19-.21-.28-.31.14.14.3.27.47.41a20,20,0,0,0,6.25,3.25c.94.3,1.93.58,3,.84s2.37.5,3.6.67a35.44,35.44,0,0,0,11.51-.15c8.59-1.69,13.8-7.17,13.8-11.06v-7.45c-7.28,3.35-16.89,4.17-25.31,2.45-1.23-.25-2.43-.55-3.6-.91a31.22,31.22,0,0,1-3-1.06,27.53,27.53,0,0,1-3.36-1.64,22.8,22.8,0,0,1-2.89-2,14.91,14.91,0,0,1-3.35-3.77v-5.93a10.21,10.21,0,0,0,3.35,7.22,18.6,18.6,0,0,0,4,3,24.55,24.55,0,0,0,2.29,1.17,27.32,27.32,0,0,0,3,1.14,31.73,31.73,0,0,0,3.6,1c8.9,1.93,19.32.83,26.48-3.3a20.39,20.39,0,0,0,3.1-2.17C194.85,337.12,196.26,334.32,196.26,331.52Z" style="opacity:0.1"></path><path d="M196.26,331.52v19.61c0,3.69-2.44,7.38-7.32,10.19-.35.2-.69.4-1.06.57s-.72.37-1.1.54-.72.32-1.1.47l-.07,0c-.38.16-.76.3-1.15.44-.79.29-1.61.54-2.45.77s-1.63.41-2.47.57c9.33-2.55,12.5-8.94,12.5-11.8V339.54C194.85,337.12,196.26,334.32,196.26,331.52Z" style="opacity:0.15"></path><path d="M187.51,360.18c-9,4.51-23.49,4.51-32.45,0s-9-11.8,0-16.3,23.49-4.5,32.45,0S196.47,355.68,187.51,360.18Z" style="fill:#BA68C8;opacity:0.30000000000000004"></path><path d="M183.23,349.17c-9.47,3-21.59,2.17-29.61-2.46-4.87-2.81-7.31-6.51-7.31-10.2v9.33c0,3.69,2.44,7.38,7.31,10.19,8,4.63,20.13,5.43,29.6,2.45Z" style="fill:#fafafa"></path><path d="M188.94,341.72c-9.75,5.63-25.56,5.63-35.32,0s-9.75-14.77,0-20.4,25.57-5.63,35.32,0S198.7,336.08,188.94,341.72Z" style="fill:#BA68C8"></path><path d="M189.22,331.12a18.32,18.32,0,0,1-2.68,1.88c-6.19,3.56-15.19,4.51-22.88,2.84a27.66,27.66,0,0,1-3.1-.85,23,23,0,0,1-2.56-1c-.68-.31-1.34-.64-2-1a15.77,15.77,0,0,1-3.42-2.58,8.8,8.8,0,0,1-2.89-6.23V330a8.62,8.62,0,0,0,2.47,5.79h0l.24.27.55.52c.13.14.29.26.43.39l.47.39c.09.06.17.13.26.18a.4.4,0,0,0,.12.1s.08.06.11.09l.08.06.12.08c.45.31.93.62,1.45.92l1,.53,1,.48a23.76,23.76,0,0,0,2.56,1,24.41,24.41,0,0,0,3.1.85,36.47,36.47,0,0,0,14.68.11l.07,0c.73-.14,1.44-.3,2.14-.49s1.43-.42,2.12-.66c.34-.13.66-.25,1-.39l.06,0c.33-.13.64-.26.95-.41s.64-.3,1-.46.62-.33.92-.5c4.21-2.43,6.32-5.61,6.32-8.8v-5.83C192.86,326.61,191.64,329,189.22,331.12Z" style="fill:#BA68C8"></path><path d="M189.22,331.12a18.32,18.32,0,0,1-2.68,1.88c-6.19,3.56-15.19,4.51-22.88,2.84a27.66,27.66,0,0,1-3.1-.85,23,23,0,0,1-2.56-1c-.68-.31-1.34-.64-2-1a15.77,15.77,0,0,1-3.42-2.58,8.8,8.8,0,0,1-2.89-6.23V330a8.62,8.62,0,0,0,2.47,5.79h0l.24.27.55.52c.13.14.29.26.43.39l.47.39c.09.06.17.13.26.18a.4.4,0,0,0,.12.1s.08.06.11.09l.08.06.12.08c.45.31.93.62,1.45.92l1,.53,1,.48a23.76,23.76,0,0,0,2.56,1,24.41,24.41,0,0,0,3.1.85,36.47,36.47,0,0,0,14.68.11l.07,0c.73-.14,1.44-.3,2.14-.49s1.43-.42,2.12-.66c.34-.13.66-.25,1-.39l.06,0c.33-.13.64-.26.95-.41s.64-.3,1-.46.62-.33.92-.5c4.21-2.43,6.32-5.61,6.32-8.8v-5.83C192.86,326.61,191.64,329,189.22,331.12Z" style="opacity:0.2"></path><path d="M156,333c.63.36,1.29.69,2,1v5.83l-1-.48-1-.53c-.52-.3-1-.61-1.45-.92l-.12-.08-.31-.25a14.72,14.72,0,0,1-1.54-1.35v-5.8A15.77,15.77,0,0,0,156,333Z" style="fill:#fff;opacity:0.15"></path><path d="M163.66,335.84v5.82a30.69,30.69,0,0,1-3.1-.85V335A27.66,27.66,0,0,0,163.66,335.84Z" style="fill:#fff;opacity:0.15"></path><path d="M192.86,324.19V330c0,3.19-2.11,6.37-6.32,8.8-.3.17-.6.34-.92.5s-.62.32-1,.46-.62.28-.95.41l-.06,0c-.33.14-.65.26-1,.39-.69.24-1.39.47-2.12.66s-1.41.35-2.14.49l-.07,0a36.47,36.47,0,0,1-14.68-.11,24.41,24.41,0,0,1-3.1-.85,23.76,23.76,0,0,1-2.56-1l-1-.48-1-.53c-.52-.3-1-.61-1.45-.92l-.12-.08-.08-.06s-.08-.05-.11-.09l-.38-.28-.47-.39c-.14-.13-.3-.25-.43-.39l-.55-.52-.24-.27a4.79,4.79,0,0,0,.41.36A17.35,17.35,0,0,0,158,339c.82.27,1.67.51,2.56.73s2,.43,3.1.58a42.76,42.76,0,0,0,11.33.21c8.24-1.39,10.53-3.62,10.53-5.19v-.51a37,37,0,0,1-21.86,2.6c-1.06-.22-2.1-.48-3.1-.79a24.3,24.3,0,0,1-2.56-.92,22.75,22.75,0,0,1-2.89-1.41,18.2,18.2,0,0,1-2.5-1.71,12.94,12.94,0,0,1-2.89-3.26v-5.12a8.8,8.8,0,0,0,2.89,6.23A15.77,15.77,0,0,0,156,333c.63.36,1.29.69,2,1a23,23,0,0,0,2.56,1,27.66,27.66,0,0,0,3.1.85c7.69,1.67,16.69.72,22.88-2.84a18.32,18.32,0,0,0,2.68-1.88C191.64,329,192.86,326.61,192.86,324.19Z" style="opacity:0.1"></path><path d="M192.86,324.19V330c0,3.19-2.11,6.37-6.32,8.8-.3.17-.6.34-.92.5s-.62.32-1,.46-.62.28-.95.41l-.06,0c-.33.14-.65.26-1,.39-.69.24-1.39.46-2.12.66s-1.41.35-2.14.49c8.06-2.21,10.81-5.57,10.81-8v-2.59C191.64,329,192.86,326.61,192.86,324.19Z" style="opacity:0.15"></path><path d="M186.54,333c-8.43,4.86-22.08,4.86-30.51,0s-8.42-12.75,0-17.62,22.08-4.86,30.51,0S195,328.13,186.54,333Z" style="fill:#BA68C8"></path><path d="M187.39,326.55A10,10,0,0,1,183,331c-6.48,3.74-17,3.74-23.49,0a10.06,10.06,0,0,1-4.36-4.43c-1.38-3.17.08-6.66,4.36-9.14,6.48-3.75,17-3.75,23.49,0C187.32,319.89,188.77,323.38,187.39,326.55Z" style="fill:#BA68C8"></path><path d="M187.39,326.55A10,10,0,0,1,183,331c-6.48,3.74-17,3.74-23.49,0a10.06,10.06,0,0,1-4.36-4.43c-1.38-3.17.08-6.66,4.36-9.14,6.48-3.75,17-3.75,23.49,0C187.32,319.89,188.77,323.38,187.39,326.55Z" style="opacity:0.15"></path><path d="M187.39,326.55A10,10,0,0,1,183,331c-6.48,3.74-17,3.74-23.49,0a10.06,10.06,0,0,1-4.36-4.43,10,10,0,0,1,4.36-4.43c6.48-3.74,17-3.74,23.49,0A10,10,0,0,1,187.39,326.55Z" style="fill:#BA68C8"></path><path d="M187.39,326.55A10,10,0,0,1,183,331c-6.48,3.74-17,3.74-23.49,0a10.06,10.06,0,0,1-4.36-4.43.24.24,0,0,1,.06-.09c2.9-3.35,6.54-3.62,10.65-5.46a13.38,13.38,0,0,0,2.68-1.56,4.74,4.74,0,0,0,2-4.3,5.79,5.79,0,0,1,3.48,4.31,7.42,7.42,0,0,1,.18,2.25s8.92.42,13,4.55C187.29,326.35,187.35,326.45,187.39,326.55Z" style="fill:#fafafa"></path><path d="M177.92,322.19a30.28,30.28,0,0,0-3.5-.43c-.6,3.55-4.18,3.55-4.59,5.51s4.44,2.44,5.38,1.36c0,0-3.2.54-3.52-1.14S176.33,325.55,177.92,322.19Z" style="fill:#e0e0e0"></path></g><path d="M192.58,373.75c0-3.69,2.44-7.38,7.32-10.2,9.75-5.63,25.56-5.63,35.32,0,4.87,2.82,7.31,6.51,7.31,10.2h0v9h0c0,3.69-2.44,7.38-7.31,10.19-9.76,5.64-25.57,5.64-35.32,0-4.88-2.81-7.32-6.5-7.32-10.19h0v-9Z" style="fill:#e0e0e0"></path><g style="opacity:0.1"><path d="M230.67,395l1.2-.46V382.33h-1.2Z"></path><path d="M240.22,388.74V376.85H239v13.2A14.52,14.52,0,0,0,240.22,388.74Z"></path><path d="M225.53,396.36l1.2-.24V383.8h-1.2Z"></path><path d="M220,397.05c.4,0,.8-.06,1.2-.1V384.54H220Z"></path><path d="M236.52,392.07V380h-1.2v12.8C235.74,392.59,236.13,392.33,236.52,392.07Z"></path><path d="M241.93,385.8a8.61,8.61,0,0,0,.6-3.09h0v-9h0a8.44,8.44,0,0,0-.28-2.05h-.32Z"></path><path d="M208.89,396.22l1.2.24V383.89h-1.2Z"></path><path d="M203.66,394.69c.39.15.8.28,1.2.42V382.56h-1.2Z"></path><path d="M214.43,397c.39,0,.79.06,1.19.07V384.56h-1.19Z"></path><path d="M200.11,393V380.57h-1.2v11.7c.32.21.64.43,1,.63Z"></path><path d="M195.94,389.9V377.38h-1.2v11.17A14.89,14.89,0,0,0,195.94,389.9Z"></path><path d="M193.18,372.73h-.51a8.78,8.78,0,0,0-.09,1v9a8.83,8.83,0,0,0,.6,3.09Z"></path></g><path d="M211.58,396.69c12.36.07,18.88-6.74,20.86-10,1.51-2.49,1.77-2.17,1.77-6.73,0,0,1.39-10.38,1.12-10.41s3-.7,5.37-1.21a9.4,9.4,0,0,1,1.83,5.43h0v9h0c0,3.69-2.44,7.38-7.31,10.19C228.81,396.61,219.78,397.86,211.58,396.69Z" style="opacity:0.1"></path><path d="M235.22,384c-9.76,5.63-25.57,5.63-35.32,0s-9.76-14.76,0-20.4,25.56-5.63,35.32,0S245,378.32,235.22,384Z" style="fill:#ebebeb"></path><path d="M198.56,383.09c-8.37-5.67-7.94-14.18,1.34-19.54,4.75-2.74,10.95-4.14,17.18-4.21a27.87,27.87,0,0,1,9.11,3.11c8.43,4.82,8.43,14.44,0,19.26C218.67,386,207,386.47,198.56,383.09Z" style="fill:#f5f5f5"></path><path d="M240.62,379.29s-8.12,8.17-23.81,7.75-22-9-22.8-11.66a9.8,9.8,0,0,1,2.12-9,10.43,10.43,0,0,0-3.55,7.41v9c0,.93-.48,4.15,4.59,8.32,0,0-3-3.37-3-6.62v-5.54s5.55,9.29,22.61,9.29S239.76,380.68,240.62,379.29Z" style="fill:#fff"></path></g><g id="freepik--towel--inject-65"><path d="M338.17,304.55v4.66a2.07,2.07,0,0,0,1,1.78l33.41,19.29a2,2,0,0,0,2,.21L410,310a1.71,1.71,0,0,0,.72-1.57A5.8,5.8,0,0,0,408,304l-34.43-19.88Z" style="fill:#BA68C8;opacity:0.2"></path><path d="M339.07,302.44V307a2,2,0,0,0,1,1.73l32.58,18.81a1.91,1.91,0,0,0,1.92.21l34.56-20a1.67,1.67,0,0,0,.71-1.53,5.63,5.63,0,0,0-2.63-4.37l-33.58-19.39Z" style="fill:#BA68C8"></path><g style="opacity:0.2"><path d="M339.07,302.44V307a2,2,0,0,0,1,1.73l32.58,18.81a1.91,1.91,0,0,0,1.92.21l34.56-20a1.67,1.67,0,0,0,.71-1.53,5.63,5.63,0,0,0-2.63-4.37l-33.58-19.39Z" style="fill:#fff"></path></g><polygon points="386.77 290.08 352.21 310.03 345.95 306.41 380.5 286.45 386.77 290.08" style="fill:#455a64"></polygon><path d="M372.65,321.83l-33.58-19.39V307a2,2,0,0,0,1,1.73l32.58,18.81c1.45.84,2.63.24,2.63-1.33A5.64,5.64,0,0,0,372.65,321.83Z" style="opacity:0.25"></path><path d="M371.11,322.84a1.89,1.89,0,0,1,.88,1.46c0,.52-.4.72-.88.44l-32-18.49v-1.9Z" style="opacity:0.2"></path></g></g></svg>